SplineFontDB: 1.0
FontName: NachlieliCLM-Light
FullName: Nachlieli CLM Light
FamilyName: Nachlieli CLM
Weight: Light
Copyright: Copyright .51 2002-2004 by Maxim Iorsh (iorsh@math.technion.ac.il). Distributed under the terms of GNU General Public License version 2(http://www.gnu.org/licenses/gpl.html). \nLatin glyphs, digits and punctuation copyright 1999 by (URW)++ Design & Development. \nAll rights reserved.
Version: 0.101
ItalicAngle: 0
UnderlinePosition: -140
UnderlineWidth: 70
Ascent: 872
Descent: 218
UniqueID: 4122907
FSType: 0
OS2TypoAscent: 0
OS2TypoAOffset: 1
OS2TypoDescent: 0
OS2TypoDOffset: 1
OS2TypoLinegap: 0
OS2WinAscent: 0
OS2WinAOffset: 1
OS2WinDescent: 0
OS2WinDOffset: 1
HheadAscent: 0
HheadAOffset: 1
HheadDescent: 0
HheadDOffset: 1
OS2Vendor: 'PfEd'
ScriptLang: 3
 1 DFLT 1 dflt 
 1 hebr 1 dflt 
 1 latn 1 dflt 
Encoding: Custom
UnicodeInterp: none
DisplaySize: 14
AntiAlias: 1
FitToEm: 1
WinInfo: 112 28 10
BeginPrivate: 6
BlueValues 39 [-23 0 524 540 600 620 709 719 729 749]
StdHW 4 [76]
StdVW 4 [87]
StemSnapH 10 [73 76 82]
StemSnapV 10 [84 87 93]
OtherBlues 19 [-210 -200 230 243]
EndPrivate
BeginChars: 410 252
StartChar: .notdef
Encoding: 0 -1 0
Width: 696
Fore
110 630 m 1
 110 -30 l 1
 586 -30 l 1
 586 630 l 1
 110 630 l 1
60 680 m 1
 636 680 l 1
 636 -80 l 1
 60 -80 l 1
 60 680 l 1
EndSplineSet
EndChar
StartChar: exclam
Encoding: 33 33 2
Width: 278
Flags: W
HStem: 0 104<124 208> 709 20<125 208 208 208>
VStem: 124 84<0 104> 125 83<391 729>
Fore
208 729 m 1xd0
 208 391 l 1
 186 168 l 1
 147 168 l 1
 125 391 l 1
 125 729 l 1
 208 729 l 1xd0
208 104 m 1xe0
 208 0 l 1
 124 0 l 1
 124 104 l 1
 208 104 l 1xe0
EndSplineSet
EndChar
StartChar: quotedbl
Encoding: 34 34 3
Width: 355
Flags: MW
VStem: 52 93<598 709> 212 93<598 709>
Fore
52 709 m 1
 145 709 l 1
 145 598 l 1
 118 464 l 1
 79 464 l 1
 52 598 l 1
 52 709 l 1
212 709 m 1
 305 709 l 1
 305 598 l 1
 278 464 l 1
 239 464 l 1
 212 598 l 1
 212 709 l 1
EndSplineSet
EndChar
StartChar: numbersign
Encoding: 35 35 4
Width: 556
Flags: MW
HStem: -20 20 191 68<14 115 204 316 405 510> 433 68<51 159 248 360 449 542>
Fore
485 697 m 1
 449 501 l 1
 542 501 l 1
 542 433 l 1
 436 433 l 1
 405 259 l 1
 510 259 l 1
 510 191 l 1
 393 191 l 1
 354 -20 l 1
 278 -20 l 1
 316 191 l 1
 192 191 l 1
 153 -20 l 1
 77 -20 l 1
 115 191 l 1
 14 191 l 1
 14 259 l 1
 128 259 l 1
 159 433 l 1
 51 433 l 1
 51 501 l 1
 172 501 l 1
 208 697 l 1
 284 697 l 1
 248 501 l 1
 373 501 l 1
 408 697 l 1
 485 697 l 1
360 433 m 1
 236 433 l 1
 204 259 l 1
 329 259 l 1
 360 433 l 1
EndSplineSet
EndChar
StartChar: dollar
Encoding: 36 36 5
Width: 556
Flags: MW
VStem: 46 81<495.5 559> 243 59<-126 -23 46 309 405 645 645 645 716 770> 436 82<163.5 216>
Fore
243 770 m 1
 302 770 l 1
 302 716 l 1
 423 707 496 633 496 519 c 1
 417 519 l 1
 416 592 369 643 302 646 c 1
 302 397 l 1
 394 369 407 364 433 349 c 0
 491 316 518 266 518 195 c 0
 518 117 484 48 426 12 c 0
 393 -8 356 -19 302 -23 c 1
 302 -126 l 1
 243 -126 l 1
 243 -23 l 1
 102 -14 26 69 33 208 c 1
 112 208 l 1
 118 143 122 126 137 103 c 0
 160 72 198 52 243 46 c 1
 243 318 l 1
 170 340 143 351 117 370 c 0
 70 404 46 453 46 516 c 0
 46 630 115 700 243 716 c 1
 243 770 l 1
243 405 m 1
 243 645 l 1
 169 635 127 592 127 526 c 0
 127 465 164 426 243 405 c 1
302 309 m 1
 302 46 l 1
 345 51 370 60 394 83 c 0
 421 109 436 144 436 183 c 0
 436 249 404 279 302 309 c 1
EndSplineSet
EndChar
StartChar: percent
Encoding: 37 37 6
Width: 889
Flags: MW
HStem: -19 70<661 716.5> 252 70<660.5 716.5> 343 70<172 227.5> 615 70<171.5 227.5>
VStem: 29 69<486.5 542> 301 69<485.5 541.5> 518 69<124 179.5> 790 69<123 178.5>
Fore
199 685 m 0
 295 685 370 609 370 512 c 0
 370 420 293 343 200 343 c 0
 106 343 29 420 29 514 c 0
 29 608 106 685 199 685 c 0
199 615 m 0
 144 615 98 570 98 514 c 0
 98 459 144 413 200 413 c 0
 255 413 301 458 301 513 c 0
 301 570 256 615 199 615 c 0
609 709 m 1
 675 709 l 1
 280 -20 l 1
 214 -20 l 1
 609 709 l 1
688 322 m 0
 784 322 859 246 859 150 c 0
 859 58 781 -19 689 -19 c 0
 595 -19 518 58 518 152 c 0
 518 245 595 322 688 322 c 0
688 252 m 0
 633 252 587 207 587 152 c 0
 587 96 633 51 689 51 c 0
 744 51 790 96 790 150 c 0
 790 207 745 252 688 252 c 0
EndSplineSet
EndChar
StartChar: ampersand
Encoding: 38 38 7
Width: 667
Flags: W
HStem: -23 78<231 281.5> 639 70<275 326>
VStem: 52 84<148 211> 133 82<535.5 579> 388 79<531.5 578.5>
Fore
493 334 m 1xd8
 573 334 l 1
 573 274 552 208 515 151 c 1
 637 0 l 1
 528 0 l 1
 466 78 l 1
 428 41 410 26 389 13 c 0
 353 -10 306 -23 257 -23 c 0
 134 -23 52 56 52 176 c 0xe8
 52 267 90 317 214 389 c 1
 152 467 133 505 133 552 c 0
 133 640 209 709 304 709 c 0
 399 709 467 644 467 552 c 0
 467 480 433 437 329 378 c 1
 462 215 l 1
 482 250 494 298 493 334 c 1xd8
285 431 m 1
 363 480 388 509 388 554 c 0
 388 603 351 639 301 639 c 0
 249 639 215 605 215 553 c 0xd8
 215 518 224 501 285 431 c 1
418 137 m 1
 258 337 l 1
 167 279 136 239 136 183 c 0xe8
 136 113 195 55 267 55 c 0
 319 55 362 78 418 137 c 1
EndSplineSet
EndChar
StartChar: quotesingle
Encoding: 39 39 8
Width: 221
Flags: MW
HStem: 625 104<64 112>
VStem: 64 93<625 628 628 729>
Fore
64 729 m 1
 157 729 l 1
 157 628 l 2
 157 548 124 502 64 497 c 1
 64 535 l 1
 99 540 113 567 112 625 c 1
 64 625 l 1
 64 729 l 1
EndSplineSet
EndChar
StartChar: parenleft
Encoding: 40 40 9
Width: 333
Flags: MW
HStem: 709 20<236 291 291 291>
VStem: 73 81<180 337.5>
Fore
236 729 m 1
 291 729 l 1
 203 587 154 418 154 259 c 0
 154 99 203 -69 291 -212 c 1
 236 -212 l 1
 136 -81 73 101 73 259 c 0
 73 416 136 598 236 729 c 1
EndSplineSet
EndChar
StartChar: parenright
Encoding: 41 41 10
Width: 333
Flags: MW
HStem: 709 20<38 93 93 93>
VStem: 175 81<179.5 337>
Fore
93 -212 m 1
 38 -212 l 1
 126 -70 175 99 175 258 c 0
 175 418 126 586 38 729 c 1
 93 729 l 1
 193 598 256 416 256 258 c 0
 256 101 193 -81 93 -212 c 1
EndSplineSet
EndChar
StartChar: asterisk
Encoding: 42 42 11
Width: 389
Flags: MW
HStem: 514 20<192 192> 709 20<160 223 223 223>
Fore
160 729 m 1
 223 729 l 1
 218 617 l 1
 324 655 l 1
 343 596 l 1
 235 566 l 1
 305 477 l 1
 254 441 l 1
 192 534 l 1
 129 441 l 1
 79 477 l 1
 148 566 l 1
 40 596 l 1
 59 655 l 1
 165 617 l 1
 160 729 l 1
EndSplineSet
EndChar
StartChar: plus
Encoding: 43 43 12
Width: 584
Flags: MW
HStem: -10 20 197 70<50 257 327 534>
VStem: 257 70<-10 197 267 474>
Fore
534 267 m 1
 534 197 l 1
 327 197 l 1
 327 -10 l 1
 257 -10 l 1
 257 197 l 1
 50 197 l 1
 50 267 l 1
 257 267 l 1
 257 474 l 1
 327 474 l 1
 327 267 l 1
 534 267 l 1
EndSplineSet
EndChar
StartChar: comma
Encoding: 44 44 13
Width: 278
Flags: MW
HStem: 0 104<87 147>
Fore
87 104 m 1
 192 104 l 1
 192 -16 l 2
 192 -102 157 -147 87 -147 c 1
 87 -109 l 1
 134 -107 147 -87 147 -18 c 2
 147 0 l 1
 87 0 l 1
 87 104 l 1
EndSplineSet
KernsSLIFO: 18 -99 0 0
EndChar
StartChar: hyphen
Encoding: 45 45 14
Width: 333
Flags: MW
HStem: 240 72<46 284>
VStem: 46 238<240 312>
Fore
284 312 m 1
 284 240 l 1
 46 240 l 1
 46 312 l 1
 284 312 l 1
EndSplineSet
KernsSLIFO: 58 -92 0 0 56 -19 0 0 55 -46 0 0 53 -80 0 0 34 -7 0 0
EndChar
StartChar: period
Encoding: 46 46 15
Width: 278
Flags: MW
HStem: 0 104<87 191>
VStem: 87 104<0 104>
Fore
191 104 m 1
 191 0 l 1
 87 0 l 1
 87 104 l 1
 191 104 l 1
EndSplineSet
KernsSLIFO: 18 -100 0 0
EndChar
StartChar: slash
Encoding: 47 47 16
Width: 278
Flags: MW
HStem: -20 20 709 20<229 284 284 284>
Fore
229 729 m 1
 284 729 l 1
 47 -20 l 1
 -8 -20 l 1
 229 729 l 1
EndSplineSet
EndChar
StartChar: zero
Encoding: 48 48 17
Width: 556
Flags: MW
HStem: -23 73<226.5 322> 631 78<242 308.5>
VStem: 43 90<245 408.5> 417 90<244.5 406>
Fore
275 709 m 0
 342 709 401 681 438 631 c 0
 485 567 507 475 507 337 c 0
 507 104 425 -23 275 -23 c 0
 123 -23 43 104 43 343 c 0
 43 474 66 569 112 631 c 0
 149 680 209 709 275 709 c 0
275 631 m 0
 180 631 133 536 133 342 c 0
 133 148 180 50 273 50 c 0
 371 50 417 144 417 345 c 0
 417 535 370 631 275 631 c 0
EndSplineSet
KernsSLIFO: 24 -38 0 0 18 -46 0 0 21 -1 0 0
EndChar
StartChar: one
Encoding: 49 49 18
Width: 556
Flags: MW
HStem: 0 20 689 20<289 347 347 347>
VStem: 259 88<0 505 505 505>
Fore
259 505 m 1
 102 505 l 1
 102 568 l 1
 238 585 258 600 289 709 c 1
 347 709 l 1
 347 0 l 1
 259 0 l 1
 259 505 l 1
EndSplineSet
KernsSLIFO: 17 -61 0 0 19 -69 0 0 20 -66 0 0 23 -61 0 0 24 -89 0 0 15 -73 0 0 18 -118 0 0 26 -64 0 0 21 -81 0 0 22 -66 0 0 25 -64 0 0 13 -73 0 0
EndChar
StartChar: two
Encoding: 50 50 19
Width: 556
Flags: MW
HStem: 0 87<133 506> 632 77<254.5 317.5>
VStem: 421 90<471 530.5>
Fore
506 87 m 1
 506 0 l 1
 34 0 l 1
 42 156 85 223 233 307 c 2
 325 359 l 2
 388 395 421 443 421 499 c 0
 421 575 361 632 281 632 c 0
 228 632 182 606 159 563 c 0
 147 540 141 511 138 463 c 1
 50 463 l 1
 52 535 63 579 88 617 c 0
 127 677 194 709 284 709 c 0
 351 709 403 691 445 653 c 0
 487 615 511 560 511 501 c 0
 511 414 460 341 361 287 c 2
 261 233 l 2
 174 182 142 145 133 87 c 1
 506 87 l 1
EndSplineSet
KernsSLIFO: 24 -24 0 0 18 -36 0 0 21 -36 0 0
EndChar
StartChar: three
Encoding: 51 51 20
Width: 556
Flags: W
HStem: -23 78<221 315> 632 77<242.5 309>
VStem: 395 90<486 548.5> 416 90<152.5 239.5>
Fore
221 325 m 1xd0
 221 400 l 1
 283 401 314 405 338 415 c 0
 377 431 395 461 395 511 c 0
 395 586 348 632 270 632 c 0
 215 632 171 608 151 569 c 0
 140 547 136 523 135 480 c 1
 47 480 l 1
 50 631 126 709 269 709 c 0
 404 709 485 636 485 514 c 0xe0
 485 443 452 393 386 367 c 1
 471 338 506 288 506 198 c 0
 506 64 412 -23 266 -23 c 0
 169 -23 99 12 63 80 c 0
 46 112 36 149 32 206 c 1
 120 206 l 1
 126 103 173 55 269 55 c 0
 361 55 416 108 416 197 c 0
 416 282 366 326 269 326 c 2
 232 325 l 1
 221 325 l 1xd0
EndSplineSet
KernsSLIFO: 24 -33 0 0 18 -48 0 0 21 -1 0 0
EndChar
StartChar: four
Encoding: 52 52 21
Width: 556
Flags: MW
HStem: 0 20 170 79<105 327 415 520> 689 20<350 415 415 415>
VStem: 327 88<0 170 249 559 559 559>
Fore
327 170 m 1
 28 170 l 1
 28 263 l 1
 350 709 l 1
 415 709 l 1
 415 249 l 1
 520 249 l 1
 520 170 l 1
 415 170 l 1
 415 0 l 1
 327 0 l 1
 327 170 l 1
327 249 m 1
 327 559 l 1
 105 249 l 1
 327 249 l 1
EndSplineSet
KernsSLIFO: 24 -56 0 0 18 -84 0 0 21 4 0 0
EndChar
StartChar: five
Encoding: 53 53 22
Width: 556
Flags: MW
HStem: -23 78<230 316> 389 78<259 315.5> 622 87<181 476 181 181>
VStem: 423 90<168 271.5>
Fore
476 709 m 1
 476 622 l 1
 181 622 l 1
 153 424 l 1
 194 454 234 467 284 467 c 0
 420 467 513 371 513 231 c 0
 513 81 413 -23 270 -23 c 0
 190 -23 118 8 78 62 c 0
 57 88 47 116 35 174 c 1
 123 174 l 1
 144 94 191 55 268 55 c 0
 364 55 423 117 423 219 c 0
 423 324 363 389 268 389 c 0
 213 389 179 372 138 323 c 1
 57 323 l 1
 110 709 l 1
 476 709 l 1
EndSplineSet
KernsSLIFO: 24 -25 0 0 18 -75 0 0
EndChar
StartChar: six
Encoding: 54 54 23
Width: 556
Flags: MW
HStem: -23 78<242 322.5> 363 78<261 327.5> 631 78<258 322>
VStem: 43 95 423 90<164.5 256.5>
Fore
498 524 m 1
 410 524 l 1
 396 592 353 631 291 631 c 0
 190 631 134 535 133 362 c 1
 171 414 226 441 296 441 c 0
 423 441 513 348 513 216 c 0
 513 77 416 -23 281 -23 c 0
 203 -23 141 8 103 65 c 0
 61 128 43 204 43 323 c 0
 43 452 63 539 107 608 c 0
 149 671 219 709 297 709 c 0
 405 709 481 640 498 524 c 1
285 363 m 0
 198 363 138 302 138 214 c 0
 138 123 200 55 282 55 c 0
 363 55 423 120 423 209 c 0
 423 304 370 363 285 363 c 0
EndSplineSet
KernsSLIFO: 24 -29 0 0 18 -43 0 0
EndChar
StartChar: seven
Encoding: 55 55 24
Width: 556
Flags: MW
HStem: 0 20 622 87<46 429>
Fore
520 709 m 1
 520 635 l 1
 360 422 271 227 232 0 c 1
 138 0 l 1
 191 233 260 381 429 622 c 1
 46 622 l 1
 46 709 l 1
 520 709 l 1
EndSplineSet
KernsSLIFO: 19 -27 0 0 20 -23 0 0 23 -39 0 0 24 -3 0 0 15 -119 0 0 18 -52 0 0 21 -93 0 0 22 -29 0 0 25 -27 0 0 13 -119 0 0 27 -76 0 0
EndChar
StartChar: eight
Encoding: 56 56 25
Width: 556
Flags: W
HStem: -23 78<230 318> 334 74<238 312> 631 78<238 312.5>
VStem: 37 90<153.5 236> 62 90<487 553> 398 90<486.5 552.5> 423 90<153 235.5>
Fore
391 373 m 1xec
 473 334 513 275 513 196 c 0
 513 67 415 -23 275 -23 c 0
 135 -23 37 67 37 197 c 0xf2
 37 275 77 334 158 373 c 1
 86 418 62 454 62 520 c 0
 62 631 150 709 275 709 c 0
 401 709 488 631 488 520 c 0
 488 453 464 417 391 373 c 1xec
275 631 m 0
 201 631 152 587 152 519 c 0
 152 452 201 408 275 408 c 0
 349 408 398 452 398 518 c 0
 398 587 350 631 275 631 c 0
275 334 m 0
 187 334 127 278 127 195 c 0
 127 112 187 55 273 55 c 0
 363 55 423 111 423 195 c 0xf2
 423 278 363 334 275 334 c 0
EndSplineSet
KernsSLIFO: 24 -33 0 0 18 -48 0 0
EndChar
StartChar: nine
Encoding: 57 57 26
Width: 556
Flags: MW
HStem: -23 78<229 293> 245 78<223.5 289.5> 632 77<228.5 309>
VStem: 38 90<429.5 522> 413 96
Fore
53 162 m 1
 141 162 l 1
 155 94 198 55 260 55 c 0
 361 55 417 151 418 324 c 1
 372 269 323 245 256 245 c 0
 128 245 38 338 38 470 c 0
 38 609 135 709 270 709 c 0
 348 709 410 678 449 621 c 0
 491 558 509 482 509 363 c 0
 509 234 489 147 444 78 c 0
 403 15 332 -23 254 -23 c 0
 146 -23 70 46 53 162 c 1
269 632 m 0
 188 632 128 567 128 477 c 0
 128 382 181 323 266 323 c 0
 352 323 413 385 413 472 c 0
 413 564 351 632 269 632 c 0
EndSplineSet
KernsSLIFO: 24 -36 0 0 18 -43 0 0 21 -2 0 0
EndChar
StartChar: colon
Encoding: 58 58 27
Width: 278
Flags: MW
HStem: 0 104<110 214> 420 104<110 214>
VStem: 110 104<0 104 420 524>
Fore
214 104 m 1
 214 0 l 1
 110 0 l 1
 110 104 l 1
 214 104 l 1
214 524 m 1
 214 420 l 1
 110 420 l 1
 110 524 l 1
 214 524 l 1
EndSplineSet
EndChar
StartChar: semicolon
Encoding: 59 59 28
Width: 278
Flags: MW
HStem: 0 104<110 170> 420 104<111 215>
VStem: 111 104<420 524>
Fore
215 524 m 1
 215 420 l 1
 111 420 l 1
 111 524 l 1
 215 524 l 1
110 104 m 1
 215 104 l 1
 215 -16 l 2
 215 -102 180 -147 110 -147 c 1
 110 -109 l 1
 157 -107 170 -87 170 -18 c 2
 170 0 l 1
 110 0 l 1
 110 104 l 1
EndSplineSet
EndChar
StartChar: less
Encoding: 60 60 29
Width: 584
Flags: MW
HStem: -9 20
Fore
45 198 m 1
 45 267 l 1
 534 474 l 1
 534 395 l 1
 140 234 l 1
 534 70 l 1
 534 -9 l 1
 45 198 l 1
EndSplineSet
EndChar
StartChar: equal
Encoding: 61 61 30
Width: 584
Flags: MW
HStem: 111 70<50 534> 283 70<50 534>
Fore
534 353 m 1
 534 283 l 1
 50 283 l 1
 50 353 l 1
 534 353 l 1
534 181 m 1
 534 111 l 1
 50 111 l 1
 50 181 l 1
 534 181 l 1
EndSplineSet
EndChar
StartChar: greater
Encoding: 62 62 31
Width: 584
Flags: MW
HStem: -9 20
Fore
539 267 m 1
 539 198 l 1
 50 -9 l 1
 50 70 l 1
 444 231 l 1
 50 395 l 1
 50 474 l 1
 539 267 l 1
EndSplineSet
EndChar
StartChar: question
Encoding: 63 63 32
Width: 556
Flags: MW
HStem: 0 104<240 330> 663 78<264.5 329.5>
VStem: 240 90<0 104 199 246> 419 90<526 583>
Fore
330 199 m 1
 240 199 l 1
 240 254 l 2
 240 290 247 313 268 341 c 0
 285 364 285 364 344 417 c 0
 397 464 419 503 419 549 c 0
 419 617 368 663 291 663 c 0
 238 663 198 642 179 605 c 0
 167 581 162 553 162 507 c 1
 77 507 l 1
 77 661 152 741 296 741 c 0
 426 741 509 666 509 549 c 0
 509 483 484 438 409 370 c 0
 341 307 330 290 330 246 c 2
 330 199 l 1
330 104 m 1
 330 0 l 1
 240 0 l 1
 240 104 l 1
 330 104 l 1
EndSplineSet
EndChar
StartChar: at
Encoding: 64 64 33
Width: 1015
Flags: W
HStem: -142 77<388 521> 57 70<682.5 716> 62 64<425.5 453.5> 458 64<473 543> 664 77<465.5 607.5>
VStem: 34 85<177.5 323.5> 264 90<211 300> 864 87<330 440.5>
Fore
665 501 m 1xbf
 748 501 l 1
 658 221 l 2
 650 198 646 180 646 171 c 0
 646 147 669 127 696 127 c 0
 781 127 864 240 864 357 c 0
 864 524 703 664 512 664 c 0
 301 664 119 483 119 273 c 0
 119 82 282 -65 494 -65 c 0
 548 -65 605 -56 687 -33 c 1
 715 -100 l 1
 643 -127 563 -142 489 -142 c 0
 236 -142 34 36 34 258 c 0
 34 389 94 523 192 612 c 0
 280 692 406 741 525 741 c 0
 758 741 951 572 951 369 c 0
 951 291 920 210 865 146 c 0
 814 86 753 57 679 57 c 0xdf
 616 57 578 83 569 134 c 1
 523 84 480 62 427 62 c 0
 334 62 264 141 264 245 c 0
 264 390 387 522 521 522 c 0
 576 522 618 492 643 435 c 1
 665 501 l 1xbf
515 458 m 0
 431 458 354 356 354 244 c 0
 354 178 398 126 453 126 c 0xbf
 490 126 527 150 555 191 c 0
 580 228 607 312 609 362 c 0
 612 416 571 458 515 458 c 0
EndSplineSet
EndChar
StartChar: A
Encoding: 65 65 34
Width: 667
Flags: MW
HStem: 0 20 219 78<216 448> 709 20<277 397 397 397>
Fore
474 219 m 1
 193 219 l 1
 116 0 l 1
 17 0 l 1
 277 729 l 1
 397 729 l 1
 653 0 l 1
 549 0 l 1
 474 219 l 1
448 297 m 1
 336 629 l 1
 216 297 l 1
 448 297 l 1
EndSplineSet
KernsSLIFO: 90 -34 2 0 88 -21 2 0 87 -31 2 0 86 -12 2 0 85 -15 2 0 82 -8 2 0 15 4 2 0 80 -12 2 0 14 -2 2 0 72 -10 2 0 70 -15 2 0 69 -8 2 0 13 4 2 0 68 -11 2 0 67 3 2 0 66 -3 2 0 58 -98 2 0 56 -50 2 0 55 -74 2 0 54 -36 2 0 53 -93 2 0 50 -32 2 0 48 -33 2 0 40 -35 2 0 36 -36 2 0
EndChar
StartChar: B
Encoding: 66 66 35
Width: 667
Flags: W
HStem: 0 82<172 399 399 408> 333 82<172 352 352 378> 647 82<172 352 172 172>
VStem: 79 93<82 333 415 647> 498 93<511.5 551> 530 93<189.5 225>
Fore
79 0 m 1xf4
 79 729 l 1
 375 729 l 2
 445 729 495 713 533 678 c 0
 571 644 591 597 591 544 c 0xf8
 591 470 556 416 490 385 c 1
 583 349 623 296 623 208 c 0
 623 151 603 99 567 61 c 0
 528 19 477 0 408 0 c 2
 79 0 l 1xf4
172 415 m 1
 352 415 l 2
 404 415 433 422 458 441 c 0
 484 461 498 492 498 531 c 0
 498 571 484 601 458 621 c 0
 433 640 404 647 352 647 c 2
 172 647 l 1
 172 415 l 1
172 82 m 1
 399 82 l 2
 444 82 474 93 496 117 c 0
 518 140 530 172 530 207 c 0xf4
 530 243 518 275 496 298 c 0
 474 322 444 333 399 333 c 2
 172 333 l 1
 172 82 l 1
EndSplineSet
KernsSLIFO: 58 -44 2 0 56 -24 2 0 55 -40 2 0 48 -7 2 0 34 -21 2 0
EndChar
StartChar: C
Encoding: 67 67 36
Width: 722
Flags: MW
HStem: -23 82<329.5 417> 659 82<332 399.5>
VStem: 48 93<296 415>
Fore
662 503 m 1
 567 503 l 1
 556 557 541 588 514 613 c 0
 484 641 429 659 370 659 c 0
 229 659 141 544 141 357 c 0
 141 175 233 59 378 59 c 0
 456 59 518 93 548 153 c 0
 563 182 573 216 581 266 c 1
 677 266 l 1
 655 73 555 -23 377 -23 c 0
 282 -23 210 4 154 62 c 0
 85 133 48 236 48 356 c 0
 48 474 84 578 150 650 c 0
 204 710 283 741 381 741 c 0
 541 741 633 663 662 503 c 1
EndSplineSet
KernsSLIFO: 48 -8 2 0 44 -10 2 0 41 -12 2 0 34 -32 2 0
EndChar
StartChar: D
Encoding: 68 68 37
Width: 722
Flags: MW
HStem: 0 82<182 354 354 370> 647 82<182 354 182 182>
VStem: 89 93<82 647> 574 93<272 457>
Fore
89 0 m 1
 89 729 l 1
 370 729 l 2
 555 729 667 591 667 365 c 0
 667 138 554 0 370 0 c 2
 89 0 l 1
182 82 m 1
 354 82 l 2
 498 82 574 180 574 364 c 0
 574 550 498 647 354 647 c 2
 182 647 l 1
 182 82 l 1
EndSplineSet
KernsSLIFO: 58 -62 2 0 57 -52 2 0 56 -28 2 0 55 -50 2 0 53 -45 2 0 43 -4 2 0 34 -41 2 0
EndChar
StartChar: E
Encoding: 69 69 38
Width: 667
Flags: MW
HStem: 0 82<183 613> 332 82<183 580> 647 82<183 595 183 183>
VStem: 90 93<82 332 414 647>
Fore
183 332 m 1
 183 82 l 1
 613 82 l 1
 613 0 l 1
 90 0 l 1
 90 729 l 1
 595 729 l 1
 595 647 l 1
 183 647 l 1
 183 414 l 1
 580 414 l 1
 580 332 l 1
 183 332 l 1
EndSplineSet
EndChar
StartChar: F
Encoding: 70 70 39
Width: 611
Flags: MW
HStem: 0 20 332 82<183 531> 647 82<183 579 183 183>
VStem: 90 93<0 332 414 647>
Fore
183 332 m 1
 183 0 l 1
 90 0 l 1
 90 729 l 1
 579 729 l 1
 579 647 l 1
 183 647 l 1
 183 414 l 1
 531 414 l 1
 531 332 l 1
 183 332 l 1
EndSplineSet
KernsSLIFO: 86 -33 2 0 83 -35 2 0 15 -108 2 0 80 -21 2 0 75 -12 2 0 74 -10 2 0 14 -13 2 0 70 -24 2 0 13 -108 2 0 66 -33 2 0 48 -22 2 0 43 -50 2 0 34 -69 2 0
EndChar
StartChar: G
Encoding: 71 71 40
Width: 778
Flags: MW
HStem: -23 82<361 427.5> 303 82<405 627> 659 82<349.5 448.5>
VStem: 44 93<317 422.5> 627 82<93 93 283 303 303 303>
Fore
709 385 m 1
 709 -4 l 1
 650 -4 l 1
 627 93 l 1
 556 14 477 -23 378 -23 c 0
 181 -23 44 133 44 357 c 0
 44 488 92 601 176 671 c 0
 233 718 305 741 394 741 c 0
 561 741 673 656 699 508 c 1
 604 508 l 1
 584 602 504 659 393 659 c 0
 239 659 137 541 137 362 c 0
 137 272 166 185 214 133 c 0
 257 86 324 59 398 59 c 0
 531 59 627 153 627 283 c 2
 627 303 l 1
 405 303 l 1
 405 385 l 1
 709 385 l 1
EndSplineSet
KernsSLIFO: 58 -61 2 0 56 -27 2 0 55 -49 2 0 53 -44 2 0 34 -5 2 0
EndChar
StartChar: H
Encoding: 72 72 41
Width: 722
Flags: W
HStem: 0 20 332 82<177 551 177 177> 709 20<83 176 176 176 551 644 644 644>
VStem: 83 93<414 729> 83 94<0 332> 551 93<0 332 332 332 414 729>
Fore
551 332 m 1xf4
 177 332 l 1
 177 0 l 1
 83 0 l 1xec
 83 729 l 1
 176 729 l 1
 176 414 l 1
 551 414 l 1
 551 729 l 1
 644 729 l 1
 644 0 l 1
 551 0 l 1
 551 332 l 1xf4
EndSplineSet
EndChar
StartChar: I
Encoding: 73 73 42
Width: 278
Flags: MW
HStem: 0 20 709 20<100 194 194 194>
VStem: 100 94<0 729>
Fore
194 729 m 1
 194 0 l 1
 100 0 l 1
 100 729 l 1
 194 729 l 1
EndSplineSet
EndChar
StartChar: J
Encoding: 74 74 43
Width: 500
Flags: MW
HStem: -23 78<186 239.5> 709 20<333 426 426 426>
VStem: 17 95<170 187 187 234> 333 93<216 729>
Fore
333 729 m 1
 426 729 l 1
 426 182 l 2
 426 56 347 -23 220 -23 c 0
 95 -23 17 52 17 170 c 2
 17 234 l 1
 112 234 l 1
 112 187 l 2
 112 102 151 55 221 55 c 0
 258 55 292 72 310 100 c 0
 327 125 333 158 333 216 c 2
 333 729 l 1
EndSplineSet
KernsSLIFO: 34 -32 2 0
EndChar
StartChar: K
Encoding: 75 75 44
Width: 667
Flags: MW
HStem: 0 20 709 20<79 172 172 172 535 655 655 655>
VStem: 79 93<0 255 360 729>
Fore
172 255 m 1
 172 0 l 1
 79 0 l 1
 79 729 l 1
 172 729 l 1
 172 360 l 1
 535 729 l 1
 655 729 l 1
 358 432 l 1
 658 0 l 1
 548 0 l 1
 291 374 l 1
 172 255 l 1
EndSplineSet
KernsSLIFO: 90 -61 2 0 86 -19 2 0 80 -28 2 0 14 -47 2 0 70 -32 2 0 66 -11 2 0 53 20 2 0 52 -37 2 0 48 -48 2 0 40 -50 2 0 36 -50 2 0
EndChar
StartChar: L
Encoding: 76 76 45
Width: 556
Flags: MW
HStem: 0 82<173 533> 709 20<80 173 173 173>
VStem: 80 93<82 729>
Fore
173 729 m 1
 173 82 l 1
 533 82 l 1
 533 0 l 1
 80 0 l 1
 80 729 l 1
 173 729 l 1
EndSplineSet
KernsSLIFO: 90 -56 2 0 86 -7 2 0 14 -124 2 0 58 -121 2 0 56 -68 2 0 55 -105 2 0 54 -35 2 0 53 -105 2 0 52 -19 2 0 48 -40 2 0 40 -41 2 0 36 -40 2 0 34 16 2 0
EndChar
StartChar: M
Encoding: 77 77 46
Width: 833
Flags: MW
HStem: 0 20 709 20<75 204 204 204 632 761 761 761>
VStem: 75 88<0 611> 673 88<0 611 611 611>
Fore
468 0 m 1
 370 0 l 1
 163 611 l 1
 163 0 l 1
 75 0 l 1
 75 729 l 1
 204 729 l 1
 420 94 l 1
 632 729 l 1
 761 729 l 1
 761 0 l 1
 673 0 l 1
 673 611 l 1
 468 0 l 1
EndSplineSet
EndChar
StartChar: N
Encoding: 78 78 47
Width: 722
Flags: MW
HStem: 0 20 709 20<76 177 177 177 558 646 646 646>
VStem: 76 88<0 591> 558 88<133 729>
Fore
646 729 m 1
 646 0 l 1
 541 0 l 1
 164 591 l 1
 164 0 l 1
 76 0 l 1
 76 729 l 1
 177 729 l 1
 558 133 l 1
 558 729 l 1
 646 729 l 1
EndSplineSet
KernsSLIFO: 15 -7 2 0 80 1 2 0 13 -7 2 0 66 -4 2 0 40 -1 2 0 36 -2 2 0 34 -9 2 0
EndChar
StartChar: O
Encoding: 79 79 48
Width: 778
Flags: MW
HStem: -23 82<312.5 434> 659 82<312 468>
VStem: 38 93<269 449> 649 93<293.5 447>
Fore
389 741 m 0
 603 741 742 588 742 353 c 0
 742 234 695 121 616 54 c 0
 557 4 478 -23 390 -23 c 0
 180 -23 38 131 38 359 c 0
 38 587 180 741 389 741 c 0
389 659 m 0
 235 659 131 539 131 359 c 0
 131 179 235 59 390 59 c 0
 544 59 649 179 649 355 c 0
 649 539 547 659 389 659 c 0
EndSplineSet
KernsSLIFO: 58 -59 2 0 57 -46 2 0 56 -23 2 0 55 -45 2 0 53 -41 2 0 34 -35 2 0
EndChar
StartChar: P
Encoding: 80 80 49
Width: 667
Flags: MW
HStem: 0 20 309 82<184 378 378 413> 647 82<184 378 184 184>
VStem: 91 93<0 309 391 647> 520 97<481.5 559>
Fore
184 309 m 1
 184 0 l 1
 91 0 l 1
 91 729 l 1
 392 729 l 2
 536 729 617 652 617 515 c 0
 617 448 598 401 554 361 c 0
 515 326 470 309 413 309 c 2
 184 309 l 1
184 391 m 1
 378 391 l 2
 467 391 520 439 520 519 c 0
 520 599 467 647 378 647 c 2
 184 647 l 1
 184 391 l 1
EndSplineSet
KernsSLIFO: 15 -134 2 0 80 -26 2 0 14 -39 2 0 70 -31 2 0 13 -134 2 0 66 -27 2 0 43 -77 2 0 34 -77 2 0
EndChar
StartChar: Q
Encoding: 81 81 50
Width: 778
Flags: MW
HStem: -23 82<311.5 411> 659 82<312.5 467.5>
VStem: 38 93<269 449> 649 93<313 449.5>
Fore
733 -1 m 1
 686 -59 l 1
 581 28 l 1
 522 -7 462 -23 390 -23 c 0
 180 -23 38 131 38 359 c 0
 38 587 180 741 390 741 c 0
 600 741 742 587 742 361 c 0
 742 246 708 152 639 76 c 1
 733 -1 l 1
481 205 m 1
 570 132 l 1
 624 193 649 266 649 360 c 0
 649 539 545 659 390 659 c 0
 235 659 131 539 131 359 c 0
 131 179 234 59 389 59 c 0
 433 59 466 67 509 87 c 1
 435 149 l 1
 481 205 l 1
EndSplineSet
EndChar
StartChar: R
Encoding: 82 82 51
Width: 722
Flags: MW
HStem: 0 20 314 82<186 411 411 426> 647 82<186 411 186 186>
VStem: 93 93<0 314 396 647> 554 97<492.5 543>
Fore
186 314 m 1
 186 0 l 1
 93 0 l 1
 93 729 l 1
 429 729 l 2
 572 729 651 660 651 534 c 0
 651 451 618 400 536 360 c 1
 615 326 634 290 635 170 c 0
 637 73 644 47 679 23 c 1
 679 0 l 1
 566 0 l 1
 553 30 545 74 545 119 c 2
 546 184 l 2
 546 274 509 314 426 314 c 2
 186 314 l 1
186 396 m 1
 411 396 l 2
 510 396 554 435 554 521 c 0
 554 565 541 598 516 619 c 0
 493 639 463 647 411 647 c 2
 186 647 l 1
 186 396 l 1
EndSplineSet
KernsSLIFO: 90 -8 2 0 86 -9 2 0 80 -9 2 0 14 -1 2 0 70 -12 2 0 66 -14 2 0 58 -43 2 0 56 -26 2 0 55 -38 2 0 54 -16 2 0 53 -23 2 0 48 -12 2 0 40 -14 2 0 36 -15 2 0
EndChar
StartChar: S
Encoding: 83 83 52
Width: 667
Flags: MW
HStem: -23 82<302.5 371.5> 663 78<277 384>
VStem: 70 93<512 577> 528 93<171.5 219.5>
Fore
596 515 m 1
 508 515 l 1
 507 610 442 663 326 663 c 0
 228 663 163 614 163 540 c 0
 163 484 195 456 283 432 c 2
 466 383 l 2
 565 356 621 290 621 200 c 0
 621 137 590 72 541 33 c 0
 494 -3 423 -23 336 -23 c 0
 225 -23 141 13 91 81 c 0
 62 121 49 165 48 232 c 1
 136 232 l 1
 135 187 147 152 174 120 c 0
 209 78 263 59 342 59 c 0
 401 59 447 70 476 90 c 0
 507 112 528 152 528 191 c 0
 528 248 486 285 394 309 c 2
 213 357 l 2
 117 382 70 438 70 527 c 0
 70 659 169 741 329 741 c 0
 497 741 595 658 596 515 c 1
EndSplineSet
KernsSLIFO: 85 -2 2 0 58 -48 2 0 56 -27 2 0 55 -41 2 0 53 -27 2 0 34 -22 2 0
EndChar
StartChar: T
Encoding: 84 84 53
Width: 611
Flags: MW
HStem: 0 20 647 82<21 261 354 593 354 354>
VStem: 261 93<0 647>
Fore
354 647 m 1
 354 0 l 1
 261 0 l 1
 261 647 l 1
 21 647 l 1
 21 729 l 1
 593 729 l 1
 593 647 l 1
 354 647 l 1
EndSplineSet
KernsSLIFO: 90 -99 2 0 88 -93 2 0 87 -95 2 0 86 -90 2 0 28 -129 2 0 84 -92 2 0 83 -92 2 0 15 -99 2 0 80 -92 2 0 75 -4 2 0 74 -2 2 0 14 -76 2 0 72 -88 2 0 70 -95 2 0 13 -99 2 0 27 -133 2 0 68 -89 2 0 66 -99 2 0 58 20 2 0 56 15 2 0 55 12 2 0 52 -24 2 0 48 -41 2 0 43 -99 2 0 40 -45 2 0 36 -44 2 0 34 -95 2 0
EndChar
StartChar: U
Encoding: 85 85 54
Width: 722
Flags: MW
HStem: -23 82<337 422.5> 709 20<85 178 178 178 552 645 645 645>
VStem: 85 93<217 729> 552 93<217 729>
Fore
552 729 m 1
 645 729 l 1
 645 217 l 2
 645 71 535 -23 364 -23 c 0
 191 -23 85 69 85 217 c 2
 85 729 l 1
 178 729 l 1
 178 217 l 2
 178 162 195 125 231 97 c 0
 266 72 310 59 364 59 c 0
 481 59 552 119 552 217 c 2
 552 729 l 1
EndSplineSet
KernsSLIFO: 83 -3 2 0 15 -24 2 0 81 2 2 0 79 -3 2 0 78 -3 2 0 13 -26 2 0 34 -36 2 0
EndChar
StartChar: V
Encoding: 86 86 55
Width: 667
Flags: MW
HStem: 0 20 709 20<30 130 130 130 546 645 645 645>
Fore
392 0 m 1
 292 0 l 1
 30 729 l 1
 130 729 l 1
 344 112 l 1
 546 729 l 1
 645 729 l 1
 392 0 l 1
EndSplineSet
KernsSLIFO: 90 -20 2 0 86 -40 2 0 28 -65 2 0 83 -41 2 0 15 -88 2 0 80 -53 2 0 74 -4 2 0 14 -37 2 0 72 -49 2 0 70 -57 2 0 13 -88 2 0 27 -65 2 0 66 -59 2 0 53 14 2 0 52 -35 2 0 48 -39 2 0 40 -41 2 0 36 -43 2 0 34 -71 2 0
EndChar
StartChar: W
Encoding: 87 87 56
Width: 944
Flags: MW
HStem: 0 20 709 20<22 126 126 126 425 525 525 525 825 929 929 929>
Fore
744 0 m 1
 642 0 l 1
 474 599 l 1
 311 0 l 1
 209 0 l 1
 22 729 l 1
 126 729 l 1
 263 137 l 1
 425 729 l 1
 525 729 l 1
 691 137 l 1
 825 729 l 1
 929 729 l 1
 744 0 l 1
EndSplineSet
KernsSLIFO: 90 -5 2 0 86 -27 2 0 28 -52 2 0 83 -27 2 0 15 -56 2 0 80 -28 2 0 14 -12 2 0 72 -24 2 0 70 -32 2 0 13 -56 2 0 27 -51 2 0 66 -37 2 0 53 19 2 0 52 -24 2 0 48 -20 2 0 40 -22 2 0 36 -23 2 0 34 -49 2 0
EndChar
StartChar: X
Encoding: 88 88 57
Width: 667
Flags: MW
HStem: 0 20 709 20<38 151 151 151 526 637 637 637>
Fore
391 374 m 1
 649 0 l 1
 534 0 l 1
 335 304 l 1
 135 0 l 1
 22 0 l 1
 280 374 l 1
 38 729 l 1
 151 729 l 1
 338 443 l 1
 526 729 l 1
 637 729 l 1
 391 374 l 1
EndSplineSet
KernsSLIFO: 90 -60 2 0 86 -24 2 0 80 -33 2 0 14 -50 2 0 70 -36 2 0 66 -14 2 0 50 -44 2 0 48 -45 2 0 36 -48 2 0
EndChar
StartChar: Y
Encoding: 89 89 58
Width: 667
Flags: MW
HStem: 0 20 709 20<13 128 128 128 550 661 661 661>
VStem: 294 93<0 286>
Fore
387 286 m 1
 387 0 l 1
 294 0 l 1
 294 286 l 1
 13 729 l 1
 128 729 l 1
 342 374 l 1
 550 729 l 1
 661 729 l 1
 387 286 l 1
EndSplineSet
KernsSLIFO: 87 -36 2 0 86 -62 2 0 28 -87 2 0 15 -110 2 0 81 -53 2 0 80 -85 2 0 74 2 2 0 14 -84 2 0 72 -83 2 0 70 -88 2 0 13 -110 2 0 27 -86 2 0 66 -87 2 0 53 23 2 0 52 -40 2 0 48 -56 2 0 40 -58 2 0 36 -58 2 0 34 -96 2 0
EndChar
StartChar: Z
Encoding: 90 90 59
Width: 611
Flags: MW
HStem: 0 82<145 583> 647 82<56 466>
Fore
581 729 m 1
 581 645 l 1
 145 82 l 1
 583 82 l 1
 583 0 l 1
 28 0 l 1
 28 82 l 1
 466 647 l 1
 56 647 l 1
 56 729 l 1
 581 729 l 1
EndSplineSet
KernsSLIFO: 90 -37 2 0 87 -33 2 0
EndChar
StartChar: bracketleft
Encoding: 91 91 60
Width: 278
Flags: MW
HStem: -212 72<147 250> 657 72<147 250 147 147>
VStem: 64 83<-140 657>
Fore
250 729 m 1
 250 657 l 1
 147 657 l 1
 147 -140 l 1
 250 -140 l 1
 250 -212 l 1
 64 -212 l 1
 64 729 l 1
 250 729 l 1
EndSplineSet
EndChar
StartChar: backslash
Encoding: 92 92 61
Width: 278
Flags: MW
HStem: -20 20 709 20<-8 47 47 47>
Fore
47 729 m 1
 284 -20 l 1
 229 -20 l 1
 -8 729 l 1
 47 729 l 1
EndSplineSet
EndChar
StartChar: bracketright
Encoding: 93 93 62
Width: 278
Flags: MW
HStem: -212 72<23 126> 657 72<23 126>
VStem: 126 83<-140 657 657 657>
Fore
23 -212 m 1
 23 -140 l 1
 126 -140 l 1
 126 657 l 1
 23 657 l 1
 23 729 l 1
 209 729 l 1
 209 -212 l 1
 23 -212 l 1
EndSplineSet
EndChar
StartChar: asciicircum
Encoding: 94 94 63
Width: 469
Flags: W
Fore
197 709 m 1
 270 709 l 1
 425 329 l 1
 356 329 l 1
 234 629 l 1
 113 329 l 1
 44 329 l 1
 197 709 l 1
EndSplineSet
EndChar
StartChar: underscore
Encoding: 95 95 64
Width: 556
Flags: MW
HStem: -176 50<-22 578>
Fore
578 -126 m 1
 578 -176 l 1
 -22 -176 l 1
 -22 -126 l 1
 578 -126 l 1
EndSplineSet
EndChar
StartChar: grave
Encoding: 96 96 65
Width: 222
Flags: MW
HStem: 477 104<110 158>
VStem: 65 93<477 578 578 581>
Fore
158 477 m 1
 65 477 l 1
 65 578 l 2
 65 657 98 704 158 709 c 1
 158 671 l 1
 124 666 109 638 110 581 c 1
 158 581 l 1
 158 477 l 1
EndSplineSet
EndChar
StartChar: a
Encoding: 97 97 66
Width: 556
Flags: MW
HStem: -23 73<199.5 247> 462 77<237 309.5>
VStem: 42 87<107.5 161.5> 389 83<165 259 259 259 362 384 384 396>
Fore
535 49 m 1
 535 -14 l 1
 508 -21 495 -23 478 -23 c 0
 424 -23 398 1 392 54 c 1
 333 0 280 -23 214 -23 c 0
 108 -23 42 37 42 132 c 0
 42 200 73 247 134 272 c 0
 166 285 184 289 302 304 c 0
 368 312 389 327 389 362 c 2
 389 384 l 2
 389 434 347 462 272 462 c 0
 194 462 156 433 149 369 c 1
 65 369 l 1
 67 421 77 451 101 478 c 0
 136 517 199 539 275 539 c 0
 404 539 472 489 472 396 c 2
 472 88 l 2
 472 62 488 47 517 47 c 0
 522 47 526 47 535 49 c 1
389 165 m 2
 389 259 l 1
 361 246 343 242 255 230 c 0
 166 217 129 189 129 134 c 0
 129 81 167 50 232 50 c 0
 281 50 322 66 356 97 c 0
 381 120 389 137 389 165 c 2
EndSplineSet
KernsSLIFO: 90 -25 2 0 88 -12 2 0 87 -21 2 0 75 -3 2 0
EndChar
StartChar: b
Encoding: 98 98 67
Width: 556
Flags: MW
HStem: -23 78<258.5 328.5> 461 78<263 329.5> 709 20<54 137 137 137>
VStem: 54 83<196.5 319.5 453 729> 436 87<195.5 317.5>
Fore
54 729 m 1
 137 729 l 1
 137 453 l 1
 176 512 227 539 299 539 c 0
 437 539 523 434 523 264 c 0
 523 90 433 -23 295 -23 c 0
 222 -23 169 6 129 67 c 1
 129 0 l 1
 54 0 l 1
 54 729 l 1
283 461 m 0
 195 461 137 381 137 258 c 0
 137 135 195 55 283 55 c 0
 374 55 436 136 436 255 c 0
 436 380 376 461 283 461 c 0
EndSplineSet
KernsSLIFO: 90 -14 2 0 88 -2 2 0 87 -11 2 0
EndChar
StartChar: c
Encoding: 99 99 68
Width: 500
Flags: MW
HStem: -23 77<219 300.5> 462 77<217.5 298>
VStem: 31 87<191 318.5>
Fore
471 348 m 1
 387 348 l 1
 377 421 333 462 263 462 c 0
 172 462 118 384 118 253 c 0
 118 129 173 54 265 54 c 0
 336 54 379 96 393 180 c 1
 477 180 l 1
 467 52 388 -23 263 -23 c 0
 121 -23 31 84 31 253 c 0
 31 427 123 539 264 539 c 0
 337 539 400 510 436 461 c 0
 456 432 467 399 471 348 c 1
EndSplineSet
KernsSLIFO: 76 7 2 0
EndChar
StartChar: d
Encoding: 100 100 69
Width: 556
Flags: MW
HStem: -23 78<220 290> 461 78<219.5 286> 709 20<412 495 495 495>
VStem: 26 87<197 319> 412 83<195.5 318.5 458 729>
Fore
495 729 m 1
 495 0 l 1
 421 0 l 1
 421 69 l 1
 376 4 326 -23 254 -23 c 0
 113 -23 26 86 26 263 c 0
 26 430 115 539 251 539 c 0
 321 539 377 511 412 458 c 1
 412 729 l 1
 495 729 l 1
265 461 m 0
 174 461 113 380 113 258 c 0
 113 136 174 55 266 55 c 0
 354 55 412 135 412 256 c 0
 412 381 355 461 265 461 c 0
EndSplineSet
EndChar
StartChar: e
Encoding: 101 101 70
Width: 556
Flags: MW
HStem: -23 77<254.5 314.5> 234 68<129 423> 462 77<237 320>
Fore
513 234 m 1
 127 234 l 1
 128 182 135 152 155 122 c 0
 183 78 228 54 281 54 c 0
 348 54 395 90 418 159 c 1
 502 159 l 1
 481 45 398 -23 278 -23 c 0
 131 -23 40 83 40 255 c 0
 40 427 134 539 280 539 c 0
 378 539 458 487 492 401 c 0
 507 362 513 314 513 234 c 1
129 302 m 1
 423 302 l 1
 424 304 424 306 424 308 c 0
 424 394 361 462 279 462 c 0
 195 462 136 399 129 302 c 1
EndSplineSet
KernsSLIFO: 90 -19 2 0 89 -26 2 0 88 -9 2 0 87 -14 2 0 85 -10 2 0
EndChar
StartChar: f
Encoding: 102 102 71
Width: 278
Flags: MW
HStem: 0 20 456 68<18 88 171 258> 659 73<210 219.5>
VStem: 88 83<0 456 524 606>
Fore
258 524 m 1
 258 456 l 1
 171 456 l 1
 171 0 l 1
 88 0 l 1
 88 456 l 1
 18 456 l 1
 18 524 l 1
 88 524 l 1
 88 613 l 2
 88 688 134 732 211 732 c 0
 228 732 239 731 258 727 c 1
 258 658 l 1
 239 659 236 659 229 659 c 0
 191 659 171 641 171 606 c 2
 171 524 l 1
 258 524 l 1
EndSplineSet
KernsSLIFO: 85 24 2 0 80 -10 2 0 77 -2 2 0 75 -3 2 0 74 -1 2 0 71 22 2 0 70 -14 2 0 66 -9 2 0
EndChar
StartChar: g
Encoding: 103 103 72
Width: 556
Flags: MW
HStem: -218 70<239 283.5> -23 77<217.5 278> 462 77<216.5 285.5>
VStem: 29 87<210 321> 412 77<448 524>
Fore
412 524 m 1
 489 524 l 1
 489 86 l 2
 489 -37 474 -103 434 -151 c 0
 400 -193 333 -218 255 -218 c 0
 132 -218 55 -159 46 -60 c 1
 131 -60 l 1
 136 -91 144 -105 163 -120 c 0
 186 -138 220 -148 258 -148 c 0
 309 -148 352 -130 374 -99 c 0
 395 -70 404 -27 404 44 c 2
 404 71 l 1
 357 5 311 -23 245 -23 c 0
 190 -23 134 3 95 47 c 0
 52 97 29 167 29 253 c 0
 29 423 119 539 252 539 c 0
 319 539 370 510 412 448 c 1
 412 524 l 1
261 462 m 0
 172 462 116 384 116 258 c 0
 116 131 171 54 262 54 c 0
 350 54 404 130 404 255 c 0
 404 386 351 462 261 462 c 0
EndSplineSet
KernsSLIFO: 66 -4 2 0
EndChar
StartChar: h
Encoding: 104 104 73
Width: 556
Flags: MW
HStem: 0 20 466 73<284 308.5> 709 20<70 153 153 153>
VStem: 70 83<0 289 452 729> 403 83<0 363 363 381.5>
Fore
70 729 m 1
 153 729 l 1
 153 452 l 1
 202 516 247 539 321 539 c 0
 423 539 486 484 486 396 c 2
 486 0 l 1
 403 0 l 1
 403 363 l 2
 403 400 393 425 369 442 c 0
 349 457 322 466 295 466 c 0
 209 466 153 396 153 289 c 2
 153 0 l 1
 70 0 l 1
 70 729 l 1
EndSplineSet
KernsSLIFO: 90 -17 2 0
EndChar
StartChar: i
Encoding: 105 105 74
Width: 222
Flags: W
HStem: 0 20 624 105<66 150>
VStem: 66 84<624 729> 67 83<0 524>
Fore
150 524 m 1xd0
 150 0 l 1
 67 0 l 1
 67 524 l 1
 150 524 l 1xd0
150 729 m 1xe0
 150 624 l 1
 66 624 l 1
 66 729 l 1
 150 729 l 1xe0
EndSplineSet
KernsSLIFO: 75 -2 2 0 53 -7 2 0
EndChar
StartChar: j
Encoding: 106 106 75
Width: 222
Flags: MW
HStem: -218 73<3.5 27.5> 624 105<70 153>
VStem: 70 83<-76 524 624 729>
Fore
70 524 m 1
 153 524 l 1
 153 -109 l 2
 153 -180 104 -218 10 -218 c 0
 -3 -218 -8 -217 -18 -215 c 1
 -18 -144 l 1
 -1 -145 -1 -145 2 -145 c 0
 53 -145 70 -128 70 -76 c 2
 70 524 l 1
153 729 m 1
 153 624 l 1
 70 624 l 1
 70 729 l 1
 153 729 l 1
EndSplineSet
EndChar
StartChar: k
Encoding: 107 107 76
Width: 500
Flags: MW
HStem: 0 20 709 20<58 141 141 141>
VStem: 58 83<0 204 302 729>
Fore
141 729 m 1
 141 302 l 1
 363 524 l 1
 470 524 l 1
 288 343 l 1
 502 0 l 1
 399 0 l 1
 222 284 l 1
 141 204 l 1
 141 0 l 1
 58 0 l 1
 58 729 l 1
 141 729 l 1
EndSplineSet
KernsSLIFO: 86 -11 2 0 84 -2 2 0 80 -19 2 0 14 -40 2 0 72 -15 2 0 70 -21 2 0 66 -1 2 0
EndChar
StartChar: l
Encoding: 108 108 77
Width: 222
Flags: MW
HStem: 0 20 709 20<68 152 152 152>
VStem: 68 84<0 729>
Fore
152 729 m 1
 152 0 l 1
 68 0 l 1
 68 729 l 1
 152 729 l 1
EndSplineSet
KernsSLIFO: 90 -4 2 0
EndChar
StartChar: m
Encoding: 109 109 78
Width: 833
Flags: W
HStem: 0 20 466 73<273 308 575 611.5> 504 20<70 147 147 147>
VStem: 70 77<450 524> 70 84<0 329> 374 84<0 329> 678 84<0 361 361 393>
Fore
70 524 m 1xb6
 147 524 l 1
 147 450 l 1xb6
 192 513 238 539 308 539 c 0
 376 539 418 515 449 459 c 1
 498 518 540 539 610 539 c 0
 708 539 762 487 762 393 c 2
 762 0 l 1
 678 0 l 1
 678 361 l 2
 678 427 642 466 581 466 c 0
 513 466 458 405 458 329 c 2
 458 0 l 1
 374 0 l 1
 374 361 l 2
 374 428 339 466 277 466 c 0
 209 466 154 405 154 329 c 2
 154 0 l 1
 70 0 l 1xce
 70 524 l 1xb6
EndSplineSet
KernsSLIFO: 90 -17 2 0 88 -7 2 0 87 -12 2 0 81 4 2 0
EndChar
StartChar: n
Encoding: 110 110 79
Width: 556
Flags: W
HStem: 0 20 466 73<282 329> 504 20<70 147 147 147>
VStem: 70 77<436 524> 70 84<0 289> 404 83<0 363 363 394.5>
Fore
70 524 m 1xb4
 147 524 l 1
 147 436 l 1xb4
 193 509 243 539 321 539 c 0
 422 539 487 483 487 396 c 2
 487 0 l 1
 404 0 l 1
 404 363 l 2
 404 426 362 466 296 466 c 0
 210 466 154 396 154 289 c 2
 154 0 l 1
 70 0 l 1xcc
 70 524 l 1xb4
EndSplineSet
KernsSLIFO: 90 -17 2 0 88 -7 2 0 87 -12 2 0 81 4 2 0 53 -96 2 0
EndChar
StartChar: o
Encoding: 111 111 80
Width: 556
Flags: MW
HStem: -23 77<226.5 319> 462 77<226.5 320>
VStem: 36 87<194.5 321> 423 87<193.5 320>
Fore
272 539 m 0
 423 539 510 435 510 254 c 0
 510 82 420 -23 273 -23 c 0
 124 -23 36 82 36 258 c 0
 36 434 125 539 272 539 c 0
273 462 m 0
 180 462 123 384 123 258 c 0
 123 131 180 54 273 54 c 0
 365 54 423 132 423 255 c 0
 423 385 367 462 273 462 c 0
EndSplineSet
KernsSLIFO: 90 -22 2 0 89 -26 2 0 88 -10 2 0 87 -17 2 0 85 -10 2 0 53 -98 2 0
EndChar
StartChar: p
Encoding: 112 112 81
Width: 556
Flags: W
HStem: -23 78<265 329.5> 461 78<262.5 330> 504 20<54 131 131 131>
VStem: 54 77<445 524> 54 84<-218 55 196.5 319.5> 436 87<195.5 317.5>
Fore
54 -218 m 1xcc
 54 524 l 1
 131 524 l 1
 131 445 l 1xb4
 170 507 227 539 298 539 c 0
 437 539 523 429 523 253 c 0
 523 86 434 -23 299 -23 c 0
 231 -23 182 1 138 55 c 1
 138 -218 l 1
 54 -218 l 1xcc
284 461 m 0xcc
 196 461 138 381 138 258 c 0
 138 135 196 55 284 55 c 0
 375 55 436 136 436 255 c 0
 436 380 376 461 284 461 c 0xcc
EndSplineSet
KernsSLIFO: 90 -15 2 0 85 -3 2 0
EndChar
StartChar: q
Encoding: 113 113 82
Width: 556
Flags: MW
HStem: -218 20 -23 78<220 286.5> 461 78<220 288.5>
VStem: 26 87<197 318.5> 412 83<-218 60 60 60 195 318>
Fore
495 -218 m 1
 412 -218 l 1
 412 60 l 1
 373 3 323 -23 250 -23 c 0
 112 -23 26 82 26 252 c 0
 26 426 116 539 254 539 c 0
 323 539 382 509 421 454 c 1
 421 524 l 1
 495 524 l 1
 495 -218 l 1
266 461 m 0
 174 461 113 379 113 258 c 0
 113 136 174 55 266 55 c 0
 354 55 412 135 412 255 c 0
 412 381 355 461 266 461 c 0
EndSplineSet
KernsSLIFO: 86 3 2 0 68 8 2 0
EndChar
StartChar: r
Encoding: 114 114 83
Width: 333
Flags: W
HStem: 0 20 504 20<69 146 146 146> 519 20<262 294.5>
VStem: 69 77<429 524> 69 84<0 272>
Fore
69 524 m 1xd0
 146 524 l 1
 146 429 l 1xd0
 194 507 235 539 289 539 c 0
 300 539 307 538 321 536 c 1
 321 451 l 1
 263 450 238 444 212 425 c 0
 172 396 153 347 153 272 c 2
 153 0 l 1
 69 0 l 1xa8
 69 524 l 1xd0
EndSplineSet
KernsSLIFO: 91 9 2 0 90 24 2 0 89 20 2 0 88 31 2 0 87 28 2 0 86 1 2 0 85 27 2 0 28 -22 2 0 84 3 2 0 82 -2 2 0 15 -69 2 0 81 8 2 0 80 -5 2 0 76 5 2 0 14 -47 2 0 72 -3 2 0 71 25 2 0 70 -11 2 0 13 -69 2 0 27 -22 2 0 68 -5 2 0 66 -4 2 0
EndChar
StartChar: s
Encoding: 115 115 84
Width: 500
Flags: MW
HStem: -23 77<227.5 286.5> 462 77<211 278.5>
VStem: 47 87<364.5 407> 372 87<111.5 155>
Fore
438 378 m 1
 350 378 l 1
 348 433 312 462 245 462 c 0
 177 462 134 431 134 383 c 0
 134 346 163 324 231 308 c 2
 311 289 l 2
 415 264 459 221 459 143 c 0
 459 42 375 -23 243 -23 c 0
 106 -23 38 35 34 156 c 1
 122 156 l 1
 127 119 133 104 146 89 c 0
 167 67 205 54 250 54 c 0
 323 54 372 87 372 136 c 0
 372 174 349 195 291 209 c 2
 213 228 l 2
 89 258 47 297 47 379 c 0
 47 476 126 539 248 539 c 0
 369 539 437 481 438 378 c 1
EndSplineSet
KernsSLIFO: 85 -2 2 0
EndChar
StartChar: t
Encoding: 116 116 85
Width: 278
Flags: MW
HStem: -23 73 456 68<14 85 168 254>
VStem: 85 83<78.5 97 97 456 524 668>
Fore
254 524 m 1
 254 456 l 1
 168 456 l 1
 168 97 l 2
 168 60 178 50 214 50 c 0
 230 50 243 51 254 54 c 1
 254 -16 l 1
 226 -21 206 -23 186 -23 c 0
 121 -23 85 7 85 60 c 2
 85 456 l 1
 14 456 l 1
 14 524 l 1
 85 524 l 1
 85 668 l 1
 168 668 l 1
 168 524 l 1
 254 524 l 1
EndSplineSet
KernsSLIFO: 28 -27 2 0 80 -12 2 0 73 -2 2 0 70 -13 2 0 27 -27 2 0 52 -8 2 0
EndChar
StartChar: u
Encoding: 117 117 86
Width: 556
Flags: W
HStem: -23 73<223 270.5> 504 20<65 148 148 148 399 482 482 482>
VStem: 65 83<121.5 153 153 524> 399 83<227 524> 407 75<0 73 73 73>
Fore
482 0 m 1xe8
 407 0 l 1
 407 73 l 1xe8
 358 4 309 -23 232 -23 c 0
 130 -23 65 33 65 120 c 2
 65 524 l 1
 148 524 l 1
 148 153 l 2
 148 90 190 50 256 50 c 0
 343 50 399 120 399 227 c 2
 399 524 l 1
 482 524 l 1xf0
 482 0 l 1xe8
EndSplineSet
EndChar
StartChar: v
Encoding: 118 118 87
Width: 500
Flags: MW
HStem: 0 20 504 20<10 104 104 104 392 486 486 486>
Fore
285 0 m 1
 194 0 l 1
 10 524 l 1
 104 524 l 1
 244 99 l 1
 392 524 l 1
 486 524 l 1
 285 0 l 1
EndSplineSet
KernsSLIFO: 28 -23 2 0 84 -9 2 0 15 -69 2 0 80 -16 2 0 14 -12 2 0 72 -13 2 0 70 -21 2 0 13 -69 2 0 27 -23 2 0 68 -15 2 0 66 -17 2 0
EndChar
StartChar: w
Encoding: 119 119 88
Width: 722
Flags: MW
HStem: 0 20 504 20<6 98 98 98 305 407 407 407 614 708 708 708>
Fore
554 0 m 1
 459 0 l 1
 353 411 l 1
 252 0 l 1
 158 0 l 1
 6 524 l 1
 98 524 l 1
 205 116 l 1
 305 524 l 1
 407 524 l 1
 510 116 l 1
 614 524 l 1
 708 524 l 1
 554 0 l 1
EndSplineSet
KernsSLIFO: 28 -23 2 0 84 -4 2 0 15 -49 2 0 80 -9 2 0 72 -5 2 0 70 -12 2 0 13 -49 2 0 27 -23 2 0 68 -7 2 0 66 -14 2 0
EndChar
StartChar: x
Encoding: 120 120 89
Width: 500
Flags: MW
HStem: 0 20 504 20<27 122 122 122 374 468 468 468>
Fore
292 271 m 1
 473 0 l 1
 376 0 l 1
 245 201 l 1
 112 0 l 1
 17 0 l 1
 202 267 l 1
 27 524 l 1
 122 524 l 1
 248 334 l 1
 374 524 l 1
 468 524 l 1
 292 271 l 1
EndSplineSet
KernsSLIFO: 82 -20 2 0 80 -24 2 0 70 -27 2 0 68 -23 2 0 66 -16 2 0
EndChar
StartChar: y
Encoding: 121 121 90
Width: 500
Flags: MW
HStem: -218 82<99 115.5> 504 20<20 109 109 109 388 478 478 478>
Fore
388 524 m 1
 478 524 l 1
 245 -110 l 2
 229 -152 214 -174 188 -193 c 0
 166 -209 137 -218 110 -218 c 0
 88 -218 71 -214 54 -205 c 1
 54 -130 l 1
 72 -134 86 -136 98 -136 c 0
 133 -136 152 -122 165 -85 c 2
 197 -2 l 1
 20 524 l 1
 109 524 l 1
 243 116 l 1
 388 524 l 1
EndSplineSet
KernsSLIFO: 28 -26 2 0 84 -12 2 0 15 -70 2 0 80 -20 2 0 77 -3 2 0 14 -13 2 0 72 -16 2 0 70 -24 2 0 13 -70 2 0 27 -26 2 0 68 -19 2 0 66 -22 2 0
EndChar
StartChar: z
Encoding: 122 122 91
Width: 500
Flags: MW
HStem: 0 73<132 457> 451 73<52 344>
Fore
443 524 m 1
 443 450 l 1
 132 73 l 1
 457 73 l 1
 457 0 l 1
 31 0 l 1
 31 75 l 1
 344 451 l 1
 52 451 l 1
 52 524 l 1
 443 524 l 1
EndSplineSet
EndChar
StartChar: braceleft
Encoding: 123 123 92
Width: 334
Flags: MW
HStem: -212 65<261 276> 664 65<236.5 261 261 276>
VStem: 121 77<-81 -80 -80 86 86 101 431 597>
Fore
276 729 m 1
 276 664 l 1
 261 664 l 2
 212 664 198 649 198 597 c 2
 198 416 l 2
 198 324 177 283 116 259 c 1
 172 233 198 184 198 101 c 2
 198 -80 l 2
 198 -132 212 -147 261 -147 c 2
 276 -147 l 1
 276 -212 l 1
 230 -212 l 2
 161 -212 121 -164 121 -81 c 2
 121 86 l 2
 121 178 102 212 43 224 c 1
 43 293 l 1
 102 305 121 338 121 431 c 2
 121 598 l 2
 121 681 161 729 230 729 c 2
 276 729 l 1
EndSplineSet
EndChar
StartChar: bar
Encoding: 124 124 93
Width: 260
Flags: MW
HStem: 709 20<100 160 160 160>
VStem: 100 60<-212 729>
Fore
100 729 m 1
 160 729 l 1
 160 -212 l 1
 100 -212 l 1
 100 729 l 1
EndSplineSet
EndChar
StartChar: braceright
Encoding: 125 125 94
Width: 334
Flags: MW
HStem: -212 65<29 45 45 70> 664 65<29 45>
VStem: 109 77<-80 86 416 431 431 597 597 598>
Fore
29 -212 m 1
 29 -147 l 1
 45 -147 l 2
 95 -147 109 -132 109 -80 c 2
 109 101 l 2
 109 184 135 233 191 258 c 1
 135 284 109 334 109 416 c 2
 109 597 l 2
 109 649 95 664 45 664 c 2
 29 664 l 1
 29 729 l 1
 76 729 l 2
 146 729 186 681 186 598 c 2
 186 431 l 2
 186 339 205 305 262 293 c 1
 262 224 l 1
 205 212 186 178 186 86 c 2
 186 -81 l 2
 186 -164 146 -212 76 -212 c 2
 29 -212 l 1
EndSplineSet
EndChar
StartChar: asciitilde
Encoding: 126 126 95
Width: 584
Flags: MW
HStem: 268 68<397 422.5> 371 67<172 186>
Fore
455 411 m 1
 508 411 l 1
 508 395 l 2
 508 318 467 268 403 268 c 0
 378 268 348 278 322 294 c 2
 224 357 l 2
 214 363 191 371 181 371 c 0
 163 371 146 358 136 336 c 0
 132 326 130 316 128 293 c 1
 75 293 l 1
 80 387 118 438 183 438 c 0
 201 438 220 432 237 422 c 2
 354 353 l 2
 374 341 390 336 404 336 c 0
 441 336 456 358 455 411 c 1
EndSplineSet
EndChar
StartChar: sterling
Encoding: 163 163 96
Width: 556
Flags: W
HStem: -23 92<401 423> 23 77 321 55<26 107 230 366 230 230> 651 78<245.5 331.5>
VStem: 54 93<504.5 561.5> 160 85<224 255.5>
Fore
366 376 m 1x7c
 366 321 l 1
 230 321 l 1
 240 292 245 269 245 250 c 0
 245 198 217 152 127 61 c 1
 166 87 206 100 249 100 c 0x7c
 275 100 293 97 331 85 c 0
 372 73 392 69 410 69 c 0
 436 69 464 79 493 99 c 1
 535 33 l 1
 495 -6 456 -23 404 -23 c 0xbc
 367 -23 341 -17 258 12 c 0
 237 19 213 23 192 23 c 0
 157 23 121 11 83 -14 c 1
 35 52 l 1
 127 131 160 182 160 243 c 0
 160 268 151 296 136 321 c 1
 26 321 l 1
 26 376 l 1
 107 376 l 1
 61 452 54 471 54 515 c 0
 54 636 158 729 292 729 c 0
 377 729 448 692 484 630 c 0
 503 597 511 558 512 497 c 1
 424 497 l 1
 421 600 375 651 288 651 c 0
 203 651 147 600 147 523 c 0
 147 486 153 469 190 404 c 0
 193 401 200 388 206 376 c 1
 366 376 l 1x7c
EndSplineSet
EndChar
StartChar: uni0591
Encoding: 256 1425 98
Width: 0
Flags: MW
HStem: -201 21<-15.5 15.5>
VStem: -119 62<-258 -242.5> -35 70<-144 -60> 57 62<-258 -242.5>
Fore
35 -144 m 1
 83 -160 119 -205 119 -258 c 1
 57 -258 l 1
 57 -227 31 -201 0 -201 c 0
 -31 -201 -57 -227 -57 -258 c 1
 -119 -258 l 1
 -119 -205 -83 -160 -35 -144 c 1
 -35 -60 l 1
 35 -60 l 1
 35 -144 l 1
EndSplineSet
EndChar
StartChar: uni0592
Encoding: 257 1426 99
Width: 0
Flags: W
Fore
-100 660 m 1
 -100 731 l 1
 -29 731 l 1
 -29 660 l 1
 -100 660 l 1
29 660 m 1
 29 731 l 1
 100 731 l 1
 100 660 l 1
 29 660 l 1
-35 784 m 1
 -35 854 l 1
 35 854 l 1
 35 784 l 1
 -35 784 l 1
EndSplineSet
EndChar
StartChar: uni0593
Encoding: 258 1427 100
Width: 0
Flags: W
Fore
86 831 m 1
 86 785 l 1
 -1 751 l 1
 86 718 l 1
 86 671 l 1
 -86 610 l 1
 -86 661 l 1
 1 695 l 1
 -86 728 l 1
 -86 775 l 1
 4 807 l 1
 -86 841 l 1
 -86 893 l 1
 86 831 l 1
EndSplineSet
EndChar
StartChar: uni0594
Encoding: 259 1428 101
Width: 0
Flags: W
Fore
-35 731 m 1
 35 731 l 1
 35 660 l 1
 -35 660 l 1
 -35 731 l 1
-35 854 m 1
 35 854 l 1
 35 784 l 1
 -35 784 l 1
 -35 854 l 1
EndSplineSet
EndChar
StartChar: uni0595
Encoding: 260 1429 102
Width: 0
Flags: MW
HStem: 660 71<26 98> 784 70<26 98>
Fore
26 731 m 1
 98 731 l 1
 98 660 l 1
 26 660 l 1
 26 731 l 1
26 854 m 1
 98 854 l 1
 98 784 l 1
 26 784 l 1
 26 854 l 1
-28 854 m 1
 -28 660 l 1
 -98 660 l 1
 -98 854 l 1
 -28 854 l 1
EndSplineSet
EndChar
StartChar: uni0596
Encoding: 261 1430 103
Width: 0
Flags: W
Fore
0 -273 m 1
 -54 -219 -82 -143 -82 -60 c 1
 -6 -60 l 1
 -6 -143 28 -219 82 -273 c 1
 0 -273 l 1
EndSplineSet
EndChar
StartChar: uni0597
Encoding: 262 1431 104
Width: 0
Flags: W
Fore
-95 755 m 1
 0 850 l 1
 95 755 l 1
 0 660 l 1
 -95 755 l 1
EndSplineSet
EndChar
StartChar: uni0598
Encoding: 263 1432 105
Width: 0
Flags: W
Fore
-102 660 m 1
 -160 660 l 1
 -160 745 l 2
 -160 797 -118 840 -66 840 c 0
 -13 840 29 797 29 745 c 0
 29 725 45 709 66 709 c 0
 86 709 102 725 102 745 c 2
 102 830 l 1
 160 830 l 1
 160 745 l 2
 160 693 118 650 66 650 c 0
 13 650 -29 693 -29 745 c 0
 -29 765 -45 781 -66 781 c 0
 -86 781 -102 765 -102 745 c 2
 -102 660 l 1
EndSplineSet
EndChar
StartChar: uni0599
Encoding: 264 1433 106
Width: 0
Flags: W
Fore
0 873 m 1
 54 819 82 743 82 660 c 1
 6 660 l 1
 6 743 -28 819 -82 873 c 1
 0 873 l 1
EndSplineSet
EndChar
StartChar: uni059A
Encoding: 265 1434 107
Width: 0
Flags: W
Fore
36 -38 m 1
 86 -88 l 1
 14 -160 l 1
 86 -232 l 1
 36 -282 l 1
 -86 -160 l 1
 36 -38 l 1
EndSplineSet
EndChar
StartChar: uni059B
Encoding: 266 1435 108
Width: 0
Flags: W
Fore
-109 -60 m 1
 -38 -60 l 1
 -38 -131 l 1
 -109 -131 l 1
 -109 -60 l 1
26 -273 m 1
 -56 -273 l 1
 -1 -219 33 -143 33 -60 c 1
 109 -60 l 1
 109 -143 81 -219 26 -273 c 1
EndSplineSet
EndChar
StartChar: uni059C
Encoding: 267 1436 109
Width: 0
Flags: W
Fore
0 873 m 1
 82 873 l 1
 28 819 -6 743 -6 660 c 1
 -82 660 l 1
 -82 743 -54 819 0 873 c 1
EndSplineSet
EndChar
StartChar: uni059D
Encoding: 268 1437 110
Width: 0
Flags: W
Fore
0 873 m 1
 82 873 l 1
 28 819 -6 743 -6 660 c 1
 -82 660 l 1
 -82 743 -54 819 0 873 c 1
EndSplineSet
EndChar
StartChar: uni059E
Encoding: 269 1438 111
Width: 0
Flags: W
Fore
70 873 m 1
 152 873 l 1
 98 819 64 743 64 660 c 1
 -12 660 l 1
 -12 743 16 819 70 873 c 1
-70 873 m 1
 12 873 l 1
 -42 819 -76 743 -76 660 c 1
 -152 660 l 1
 -152 743 -124 819 -70 873 c 1
EndSplineSet
EndChar
StartChar: uni059F
Encoding: 270 1439 112
Width: 0
Flags: W
Fore
165 804 m 0
 140 804 119 784 119 759 c 0
 119 734 140 713 165 713 c 0
 190 713 210 734 210 759 c 0
 210 784 190 804 165 804 c 0
100 689 m 1
 45 664 l 1
 15 728 l 1
 70 753 l 1
 70 759 l 0
 70 811 112 854 165 854 c 0
 217 854 260 811 260 759 c 0
 260 706 217 664 165 664 c 0
 140 664 117 674 100 689 c 1
-165 804 m 0
 -190 804 -210 784 -210 759 c 0
 -210 734 -190 713 -165 713 c 0
 -140 713 -119 734 -119 759 c 0
 -119 784 -140 804 -165 804 c 0
-100 689 m 1
 -117 674 -140 664 -165 664 c 0
 -217 664 -260 706 -260 759 c 0
 -260 811 -217 854 -165 854 c 0
 -112 854 -70 811 -70 759 c 0
 -70 753 l 1
 -15 728 l 1
 -45 664 l 1
 -100 689 l 1
EndSplineSet
EndChar
StartChar: uni05A0
Encoding: 271 1440 113
Width: 0
Flags: W
Fore
27 804 m 0
 2 804 -18 784 -18 759 c 0
 -18 734 2 713 27 713 c 0
 52 713 73 734 73 759 c 0
 73 784 52 804 27 804 c 0
-37 689 m 1
 -92 664 l 1
 -122 728 l 1
 -67 753 l 1
 -68 755 -68 757 -68 759 c 0
 -68 811 -25 854 27 854 c 0
 80 854 122 811 122 759 c 0
 122 706 80 664 27 664 c 0
 2 664 -20 674 -37 689 c 1
EndSplineSet
EndChar
StartChar: uni05A1
Encoding: 272 1441 114
Width: 0
Flags: MW
HStem: 710 21<-42 -42 -42 -6>
Fore
-42 710 m 1
 -42 660 l 1
 -112 660 l 1
 -112 848 l 1
 -42 848 l 1
 -42 772 l 1
 -6 772 l 2
 26 772 50 798 50 829 c 2
 50 848 l 1
 112 848 l 1
 112 829 l 2
 112 764 60 710 -6 710 c 2
 -42 710 l 1
EndSplineSet
EndChar
StartChar: uni05A3
Encoding: 273 1443 115
Width: 0
Flags: W
Fore
125 -60 m 1
 125 -260 l 1
 -125 -260 l 1
 -125 -189 l 1
 55 -189 l 1
 55 -60 l 1
 125 -60 l 1
EndSplineSet
EndChar
StartChar: uni05A4
Encoding: 274 1444 116
Width: 0
Flags: W
Fore
36 -38 m 1
 86 -88 l 1
 14 -160 l 1
 86 -232 l 1
 36 -282 l 1
 -86 -160 l 1
 36 -38 l 1
EndSplineSet
EndChar
StartChar: uni05A5
Encoding: 275 1445 117
Width: 0
Flags: W
Fore
0 -273 m 1
 -82 -273 l 1
 -28 -219 6 -143 6 -60 c 1
 82 -60 l 1
 82 -143 54 -219 0 -273 c 1
EndSplineSet
EndChar
StartChar: uni05A6
Encoding: 276 1446 118
Width: 0
Flags: W
Fore
-70 -273 m 1
 -152 -273 l 1
 -98 -219 -64 -143 -64 -60 c 1
 12 -60 l 1
 12 -143 -16 -219 -70 -273 c 1
70 -273 m 1
 -12 -273 l 1
 42 -219 76 -143 76 -60 c 1
 152 -60 l 1
 152 -143 124 -219 70 -273 c 1
EndSplineSet
EndChar
StartChar: uni05A7
Encoding: 277 1447 119
Width: 0
Flags: W
Fore
99 -60 m 1
 99 -116 l 1
 -14 -116 l 1
 99 -201 l 1
 99 -258 l 1
 -99 -258 l 1
 -99 -201 l 1
 14 -201 l 1
 -99 -116 l 1
 -99 -60 l 1
 99 -60 l 1
EndSplineSet
EndChar
StartChar: uni05A8
Encoding: 278 1448 120
Width: 0
Flags: W
Fore
0 873 m 1
 54 819 82 743 82 660 c 1
 6 660 l 1
 6 743 -28 819 -82 873 c 1
 0 873 l 1
EndSplineSet
EndChar
StartChar: uni05A9
Encoding: 279 1449 121
Width: 0
Flags: W
Fore
-27 804 m 0
 -52 804 -73 784 -73 759 c 0
 -73 734 -52 713 -27 713 c 0
 -2 713 18 734 18 759 c 0
 18 784 -2 804 -27 804 c 0
37 689 m 1
 20 674 -2 664 -27 664 c 0
 -80 664 -122 706 -122 759 c 0
 -122 811 -80 854 -27 854 c 0
 25 854 68 811 68 759 c 0
 68 757 68 755 67 753 c 1
 122 728 l 1
 92 664 l 1
 37 689 l 1
EndSplineSet
EndChar
StartChar: uni05AA
Encoding: 280 1450 122
Width: 0
Flags: MW
VStem: -35 70<-258 -174>
Fore
35 -174 m 1
 35 -258 l 1
 -35 -258 l 1
 -35 -174 l 1
 -83 -158 -119 -113 -119 -60 c 1
 -57 -60 l 1
 -57 -91 -31 -117 0 -117 c 0
 31 -117 57 -91 57 -60 c 1
 119 -60 l 1
 119 -113 83 -158 35 -174 c 1
EndSplineSet
EndChar
StartChar: uni05AB
Encoding: 281 1451 123
Width: 0
Flags: W
Fore
36 880 m 1
 86 830 l 1
 14 758 l 1
 86 686 l 1
 36 636 l 1
 -86 758 l 1
 36 880 l 1
EndSplineSet
EndChar
StartChar: uni05AC
Encoding: 282 1452 124
Width: 0
Flags: W
Fore
125 860 m 1
 125 660 l 1
 -125 660 l 1
 -125 731 l 1
 55 731 l 1
 55 860 l 1
 125 860 l 1
EndSplineSet
EndChar
StartChar: uni05AD
Encoding: 283 1453 125
Width: 0
Flags: W
Fore
0 -273 m 1
 -54 -219 -82 -143 -82 -60 c 1
 -6 -60 l 1
 -6 -143 28 -219 82 -273 c 1
 0 -273 l 1
EndSplineSet
EndChar
StartChar: uni05AE
Encoding: 284 1454 126
Width: 0
Flags: W
Fore
-102 660 m 1
 -160 660 l 1
 -160 745 l 2
 -160 797 -118 840 -66 840 c 0
 -13 840 29 797 29 745 c 0
 29 725 45 709 66 709 c 0
 86 709 102 725 102 745 c 2
 102 830 l 1
 160 830 l 1
 160 745 l 2
 160 693 118 650 66 650 c 0
 13 650 -29 693 -29 745 c 0
 -29 765 -45 781 -66 781 c 0
 -86 781 -102 765 -102 745 c 2
 -102 660 l 1
EndSplineSet
EndChar
StartChar: uni05AF
Encoding: 285 1455 127
Width: 0
Flags: W
Fore
0 816 m 0
 -31 816 -57 790 -57 759 c 0
 -57 727 -31 702 0 702 c 0
 31 702 57 727 57 759 c 0
 57 790 31 816 0 816 c 0
0 877 m 0
 65 877 119 824 119 759 c 0
 119 693 65 640 0 640 c 0
 -65 640 -119 693 -119 759 c 0
 -119 824 -65 877 0 877 c 0
EndSplineSet
EndChar
StartChar: afii57799
Encoding: 286 1456 128
Width: 0
Flags: W
VStem: -35 71
Fore
-35 -184 m 1
 35 -184 l 1
 35 -254 l 1
 -35 -254 l 1
 -35 -184 l 1
-35 -60 m 1
 35 -60 l 1
 35 -131 l 1
 -35 -131 l 1
 -35 -60 l 1
EndSplineSet
EndChar
StartChar: afii57801
Encoding: 287 1457 129
Width: 0
Flags: MW
HStem: -254 71 -131 71<-168 -97 -38 32 97 168>
VStem: -103 71<-254 -184> 97 71<-254 -184 -131 -60>
Fore
-168 -60 m 1
 -97 -60 l 1
 -97 -131 l 1
 -168 -131 l 1
 -168 -60 l 1
-38 -60 m 1
 32 -60 l 1
 32 -131 l 1
 -38 -131 l 1
 -38 -60 l 1
-103 -184 m 1
 -32 -184 l 1
 -32 -254 l 1
 -103 -254 l 1
 -103 -184 l 1
97 -184 m 1
 168 -184 l 1
 168 -254 l 1
 97 -254 l 1
 97 -184 l 1
97 -60 m 1
 168 -60 l 1
 168 -131 l 1
 97 -131 l 1
 97 -60 l 1
EndSplineSet
EndChar
StartChar: afii57800
Encoding: 288 1458 130
Width: 0
Flags: MW
HStem: -131 71<-165 24 94 165>
VStem: 94 71<-254 -184 -131 -60>
Fore
-165 -60 m 1
 24 -60 l 1
 24 -131 l 1
 -165 -131 l 1
 -165 -60 l 1
94 -184 m 1
 165 -184 l 1
 165 -254 l 1
 94 -254 l 1
 94 -184 l 1
94 -60 m 1
 165 -60 l 1
 165 -131 l 1
 94 -131 l 1
 94 -60 l 1
EndSplineSet
EndChar
StartChar: afii57802
Encoding: 289 1459 131
Width: 0
Flags: MW
HStem: -131 71<-165 -106 -35 24 -35 -35 94 165>
VStem: -106 71<-248 -131> 94 71<-254 -184 -131 -60>
Fore
94 -184 m 1
 165 -184 l 1
 165 -254 l 1
 94 -254 l 1
 94 -184 l 1
94 -60 m 1
 165 -60 l 1
 165 -131 l 1
 94 -131 l 1
 94 -60 l 1
-35 -131 m 1
 -35 -248 l 1
 -106 -248 l 1
 -106 -131 l 1
 -165 -131 l 1
 -165 -60 l 1
 24 -60 l 1
 24 -131 l 1
 -35 -131 l 1
EndSplineSet
EndChar
StartChar: afii57793
Encoding: 290 1460 132
Width: 0
Flags: W
Fore
-35 -60 m 1
 35 -60 l 1
 35 -131 l 1
 -35 -131 l 1
 -35 -60 l 1
EndSplineSet
EndChar
StartChar: afii57794
Encoding: 291 1461 133
Width: 0
Flags: MW
HStem: -131 71<-100 -29 29 100>
Fore
-100 -60 m 1
 -29 -60 l 1
 -29 -131 l 1
 -100 -131 l 1
 -100 -60 l 1
29 -60 m 1
 100 -60 l 1
 100 -131 l 1
 29 -131 l 1
 29 -60 l 1
EndSplineSet
EndChar
StartChar: afii57795
Encoding: 292 1462 134
Width: 0
Flags: MW
HStem: -131 71<-100 -29 29 100>
VStem: -35 71
Fore
-100 -60 m 1
 -29 -60 l 1
 -29 -131 l 1
 -100 -131 l 1
 -100 -60 l 1
29 -60 m 1
 100 -60 l 1
 100 -131 l 1
 29 -131 l 1
 29 -60 l 1
-35 -184 m 1
 35 -184 l 1
 35 -254 l 1
 -35 -254 l 1
 -35 -184 l 1
EndSplineSet
EndChar
StartChar: afii57798
Encoding: 293 1463 135
Width: 0
Flags: W
HStem: -131 71<-125 125>
Fore
-125 -60 m 1
 125 -60 l 1
 125 -131 l 1
 -125 -131 l 1
 -125 -60 l 1
EndSplineSet
EndChar
StartChar: afii57797
Encoding: 294 1464 136
Width: 0
Flags: W
HStem: -131 71<-125 -35 35 125 35 35>
VStem: -35 71
Fore
35 -131 m 1
 35 -248 l 1
 -35 -248 l 1
 -35 -131 l 1
 -125 -131 l 1
 -125 -60 l 1
 125 -60 l 1
 125 -131 l 1
 35 -131 l 1
EndSplineSet
EndChar
StartChar: afii57806
Encoding: 295 1465 137
Width: 0
Flags: W
HStem: 711 20<-35 35 35 35>
Fore
-35 731 m 1
 35 731 l 1
 35 660 l 1
 -35 660 l 1
 -35 731 l 1
EndSplineSet
EndChar
StartChar: afii57796
Encoding: 296 1467 138
Width: 0
Flags: MW
VStem: -35 71 94 71<-254 -184>
Fore
94 -184 m 1
 165 -184 l 1
 165 -254 l 1
 94 -254 l 1
 94 -184 l 1
-35 -119 m 1
 35 -119 l 1
 35 -189 l 1
 -35 -189 l 1
 -35 -119 l 1
-165 -60 m 1
 -94 -60 l 1
 -94 -131 l 1
 -165 -131 l 1
 -165 -60 l 1
EndSplineSet
EndChar
StartChar: afii57807
Encoding: 297 1468 139
Width: 0
Flags: W
Fore
-35 341 m 1
 35 341 l 1
 35 270 l 1
 -35 270 l 1
 -35 341 l 1
EndSplineSet
EndChar
StartChar: afii57839
Encoding: 298 1469 140
Width: 0
Flags: MW
VStem: -35 71
Fore
35 -60 m 1
 35 -248 l 1
 -35 -248 l 1
 -35 -60 l 1
 35 -60 l 1
EndSplineSet
EndChar
StartChar: afii57645
Encoding: 299 1470 141
Width: 407
Flags: MW
HStem: 524 76<38 353>
Fore
353 524 m 1
 38 524 l 1
 38 600 l 1
 353 600 l 1
 353 524 l 1
EndSplineSet
EndChar
StartChar: afii57841
Encoding: 300 1471 142
Width: 0
Flags: W
HStem: 660 71<-100 100>
Fore
-100 731 m 1
 100 731 l 1
 100 660 l 1
 -100 660 l 1
 -100 731 l 1
EndSplineSet
EndChar
StartChar: afii57842
Encoding: 301 1472 143
Width: 222
Flags: MW
VStem: 67 87<-100 700>
Fore
67 -100 m 1
 67 700 l 1
 154 700 l 1
 154 -100 l 1
 67 -100 l 1
EndSplineSet
EndChar
StartChar: afii57804
Encoding: 302 1473 144
Width: 0
Flags: W
Fore
639 711 m 1
 710 711 l 1
 710 640 l 1
 639 640 l 1
 639 711 l 1
EndSplineSet
EndChar
StartChar: afii57803
Encoding: 303 1474 145
Width: 0
Flags: W
Fore
70 711 m 1
 141 711 l 1
 141 640 l 1
 70 640 l 1
 70 711 l 1
EndSplineSet
EndChar
StartChar: uni05C4
Encoding: 305 1476 147
Width: 0
Flags: MW
HStem: 711 20<-35 35 35 35>
Fore
-35 731 m 1
 35 731 l 1
 35 660 l 1
 -35 660 l 1
 -35 731 l 1
EndSplineSet
EndChar
StartChar: afii57664
Encoding: 306 1488 148
Width: 645
Flags: W
HStem: 0 21<71 158 71 71 485 485 485 587> 580 20<63 165 165 165 492 579 579 579>
VStem: 71 87<0 141> 492 87<450 600>
Fore
257 325 m 1
 197 282 158 209 158 141 c 2
 158 0 l 1
 71 0 l 1
 71 141 l 2
 71 235 130 340 211 390 c 1
 63 600 l 1
 165 600 l 1
 393 276 l 1
 454 320 492 381 492 450 c 2
 492 600 l 1
 579 600 l 1
 579 450 l 2
 579 350 523 263 438 212 c 1
 587 0 l 1
 485 0 l 1
 257 325 l 1
EndSplineSet
EndChar
StartChar: afii57665
Encoding: 307 1489 149
Width: 603
Flags: W
HStem: 0 76<65 412 499 573> 524 76<65 204>
VStem: 412 87<76 371 371 378>
Fore
204 524 m 2
 65 524 l 1
 65 600 l 1
 210 600 l 2
 370 600 499 501 499 378 c 2
 499 76 l 1
 573 76 l 1
 573 0 l 1
 65 0 l 1
 65 76 l 1
 412 76 l 1
 412 371 l 2
 412 455 319 524 204 524 c 2
EndSplineSet
EndChar
StartChar: afii57666
Encoding: 308 1490 150
Width: 476
Flags: W
HStem: 0 21<35 152 35 35 350 438 350 350> 524 76<97 118>
Fore
118 524 m 2
 97 524 l 1
 97 600 l 1
 126 600 l 2
 252 600 369 518 388 379 c 2
 438 0 l 1
 350 0 l 1
 327 172 l 1
 152 0 l 1
 35 0 l 1
 242 203 l 1
 323 203 l 1
 301 373 l 2
 288 473 208 524 118 524 c 2
EndSplineSet
EndChar
StartChar: afii57667
Encoding: 309 1491 151
Width: 608
Flags: W
HStem: 0 21<378 465 378 378> 524 76<43 378 465 548 465 465>
VStem: 378 87<0 524>
Fore
465 524 m 1
 465 0 l 1
 378 0 l 1
 378 524 l 1
 43 524 l 1
 43 600 l 1
 548 600 l 1
 548 524 l 1
 465 524 l 1
EndSplineSet
EndChar
StartChar: afii57668
Encoding: 310 1492 152
Width: 632
Flags: W
HStem: 0 21<68 68 68 155 488 575 488 488> 524 76<68 317>
VStem: 68 87<0 375> 488 87<0 372 372 378>
Fore
488 372 m 2
 488 456 411 524 317 524 c 2
 68 524 l 1
 68 600 l 1
 324 600 l 2
 463 600 575 501 575 378 c 2
 575 0 l 1
 488 0 l 1
 488 372 l 2
68 0 m 1
 68 375 l 1
 155 375 l 1
 155 0 l 1
 68 0 l 1
EndSplineSet
EndChar
StartChar: afii57669
Encoding: 311 1493 153
Width: 222
Flags: W
HStem: 0 21<67 67 67 154> 580 20<67 154 154 154>
VStem: 67 87<0 600>
Fore
67 0 m 1
 67 600 l 1
 154 600 l 1
 154 0 l 1
 67 0 l 1
EndSplineSet
EndChar
StartChar: afii57670
Encoding: 312 1494 154
Width: 361
Flags: W
HStem: 0 21<131 218 131 131> 524 76<44 131 218 301 218 218>
VStem: 131 87<0 524>
Fore
218 524 m 1
 218 0 l 1
 131 0 l 1
 131 524 l 1
 44 524 l 1
 44 600 l 1
 301 600 l 1
 301 524 l 1
 218 524 l 1
EndSplineSet
EndChar
StartChar: afii57671
Encoding: 313 1495 155
Width: 653
Flags: W
HStem: 0 21<68 155 68 68 509 509 509 596> 524 76<155 338 155 155>
VStem: 68 87<0 524> 509 87<0 372 372 378>
Fore
509 372 m 2
 509 456 432 524 338 524 c 2
 155 524 l 1
 155 0 l 1
 68 0 l 1
 68 600 l 1
 345 600 l 2
 484 600 596 501 596 378 c 2
 596 0 l 1
 509 0 l 1
 509 372 l 2
EndSplineSet
EndChar
StartChar: afii57672
Encoding: 314 1496 156
Width: 618
Flags: W
HStem: -8 76<273 367.5> 532 76<306.5 367.5>
VStem: 66 87<214 220 220 600> 488 87<220 380 380 386>
Fore
242 597 m 1
 267 604 293 608 320 608 c 0
 459 608 575 509 575 386 c 2
 575 214 l 2
 575 91 459 -8 320 -8 c 0
 182 -8 66 91 66 214 c 2
 66 600 l 1
 153 600 l 1
 153 220 l 2
 153 136 226 68 320 68 c 0
 415 68 488 136 488 220 c 2
 488 380 l 2
 488 464 415 532 320 532 c 0
 292 532 266 526 242 515 c 1
 242 597 l 1
EndSplineSet
EndChar
StartChar: afii57673
Encoding: 315 1497 157
Width: 210
Flags: W
HStem: 580 20<63 150 150 150>
VStem: 63 87<321 600>
Fore
63 600 m 1
 150 600 l 1
 150 321 l 1
 63 286 l 1
 63 600 l 1
EndSplineSet
EndChar
StartChar: afii57674
Encoding: 316 1498 158
Width: 536
Flags: W
HStem: -200 21<392 479 392 392> 524 76<43 221>
VStem: 392 87<-200 372 372 378>
Fore
392 372 m 2
 392 456 315 524 221 524 c 2
 43 524 l 1
 43 600 l 1
 228 600 l 2
 367 600 479 501 479 378 c 2
 479 -200 l 1
 392 -200 l 1
 392 372 l 2
EndSplineSet
EndChar
StartChar: afii57675
Encoding: 317 1499 159
Width: 560
Flags: W
HStem: 0 76<62 226 226 232> 524 76<62 226>
VStem: 434 87<229 371 371 378>
Fore
434 229 m 2
 434 371 l 2
 434 455 341 524 226 524 c 2
 62 524 l 1
 62 600 l 1
 232 600 l 2
 392 600 521 501 521 378 c 2
 521 222 l 2
 521 99 392 0 232 0 c 2
 62 0 l 1
 62 76 l 1
 226 76 l 2
 341 76 434 145 434 229 c 2
EndSplineSet
EndChar
StartChar: afii57676
Encoding: 318 1500 160
Width: 610
Flags: W
HStem: 0 21<295 382 295 295> 524 76<129 463>
VStem: 42 87<600 750> 295 87<0 99> 463 87<452 524 524 524>
Fore
382 99 m 2
 382 0 l 1
 295 0 l 1
 295 106 l 2
 296 155 305 196 331 242 c 0
 373 308 418 317 436 354 c 0
 457 389 463 409 463 452 c 2
 463 524 l 1
 42 524 l 1
 42 750 l 1
 129 750 l 1
 129 600 l 1
 550 600 l 1
 550 447 l 2
 550 398 541 368 514 320 c 0
 473 254 427 246 409 208 c 0
 389 173 382 142 382 99 c 2
EndSplineSet
EndChar
StartChar: afii57677
Encoding: 319 1501 161
Width: 633
Flags: W
HStem: 0 76<155 489> 524 76<155 281 155 155>
VStem: 68 87<76 524> 489 87<76 371 371 378>
Fore
281 524 m 2
 155 524 l 1
 155 76 l 1
 489 76 l 1
 489 371 l 2
 489 455 396 524 281 524 c 2
576 378 m 2
 576 0 l 1
 68 0 l 1
 68 600 l 1
 287 600 l 2
 447 600 576 501 576 378 c 2
EndSplineSet
EndChar
StartChar: afii57678
Encoding: 320 1502 162
Width: 631
Flags: W
HStem: 0 76<277 488> 524 76<53 131 219 280 219 219>
VStem: 488 87<76 371 371 378>
Fore
280 524 m 2
 219 524 l 1
 161 0 l 1
 73 0 l 1
 131 524 l 1
 53 524 l 1
 53 600 l 1
 286 600 l 2
 446 600 575 501 575 378 c 2
 575 0 l 1
 277 0 l 1
 277 76 l 1
 488 76 l 1
 488 371 l 2
 488 455 395 524 280 524 c 2
EndSplineSet
EndChar
StartChar: afii57679
Encoding: 321 1503 163
Width: 222
Flags: W
HStem: -200 21<67 67 67 154> 580 20<67 154 154 154>
VStem: 67 87<-200 600>
Fore
67 -200 m 1
 67 600 l 1
 154 600 l 1
 154 -200 l 1
 67 -200 l 1
EndSplineSet
EndChar
StartChar: afii57680
Encoding: 322 1504 164
Width: 388
Flags: W
HStem: 0 76<56 244> 524 76<70 84>
VStem: 244 87<76 372 372 378>
Fore
84 524 m 2
 70 524 l 1
 70 600 l 1
 92 600 l 2
 216 600 331 501 331 378 c 2
 331 0 l 1
 56 0 l 1
 56 76 l 1
 244 76 l 1
 244 372 l 2
 244 456 167 524 84 524 c 2
EndSplineSet
EndChar
StartChar: afii57681
Encoding: 323 1505 165
Width: 617
Flags: W
HStem: -8 76<273 367> 524 76<153 316 153 153>
VStem: 66 87<214 220 220 524> 487 87<220 372 372 378>
Fore
487 220 m 2
 487 372 l 2
 487 456 410 524 316 524 c 2
 153 524 l 1
 153 220 l 2
 153 136 226 68 320 68 c 0
 414 68 487 136 487 220 c 2
66 214 m 2
 66 600 l 1
 323 600 l 2
 462 600 574 501 574 378 c 2
 574 214 l 2
 574 91 459 -8 320 -8 c 0
 181 -8 66 91 66 214 c 2
EndSplineSet
EndChar
StartChar: afii57682
Encoding: 324 1506 166
Width: 597
Flags: W
HStem: 580 20<90 179 179 179 449 536 536 536>
VStem: 449 87<268 600>
Fore
210 67 m 1
 90 600 l 1
 179 600 l 1
 294 88 l 1
 309 92 l 2
 400 115 449 175 449 268 c 2
 449 600 l 1
 536 600 l 1
 536 267 l 2
 536 130 447 49 333 20 c 2
 41 -55 l 1
 42 24 l 1
 210 67 l 1
EndSplineSet
EndChar
StartChar: afii57683
Encoding: 325 1507 167
Width: 585
Flags: W
HStem: -200 21<441 528 441 441> 243 76<257 291> 524 76<149 270 149 149>
VStem: 62 87<390 397 397 524> 441 87<-200 372 372 378>
Fore
62 390 m 2
 62 600 l 1
 277 600 l 2
 416 600 528 501 528 378 c 2
 528 -200 l 1
 441 -200 l 1
 441 372 l 2
 441 456 364 524 270 524 c 2
 149 524 l 1
 149 397 l 2
 149 354 197 319 257 319 c 2
 291 319 l 1
 291 243 l 1
 251 243 l 2
 147 243 62 309 62 390 c 2
EndSplineSet
EndChar
StartChar: afii57684
Encoding: 326 1508 168
Width: 578
Flags: W
HStem: 0 76<68 243 243 249> 243 76<263 297> 524 76<155 243 155 155>
VStem: 68 87<390 397 397 524> 451 87<229 371 371 378>
Fore
451 229 m 2
 451 371 l 2
 451 455 358 524 243 524 c 2
 155 524 l 1
 155 397 l 2
 155 354 203 319 263 319 c 2
 297 319 l 1
 297 243 l 1
 257 243 l 2
 153 243 68 309 68 390 c 2
 68 600 l 1
 249 600 l 2
 409 600 538 501 538 378 c 2
 538 222 l 2
 538 99 409 0 249 0 c 2
 68 0 l 1
 68 76 l 1
 243 76 l 2
 358 76 451 145 451 229 c 2
EndSplineSet
EndChar
StartChar: afii57685
Encoding: 327 1509 169
Width: 550
Flags: W
HStem: -200 21<214 301 214 214> 580 20<18 117 117 117 403 490 490 490>
VStem: 214 87<-200 265> 403 87<470 600>
Fore
282 340 m 1
 367 346 403 408 403 470 c 2
 403 600 l 1
 490 600 l 1
 490 463 l 2
 490 378 426 273 301 265 c 1
 301 -200 l 1
 214 -200 l 1
 214 290 l 1
 18 600 l 1
 117 600 l 1
 282 340 l 1
EndSplineSet
EndChar
StartChar: afii57686
Encoding: 328 1510 170
Width: 600
Flags: W
HStem: 0 76<64 390> 580 20<56 156 156 156 442 529 529 529>
VStem: 442 87<472 600>
Fore
367 269 m 1
 538 0 l 1
 64 0 l 1
 64 76 l 1
 390 76 l 1
 56 600 l 1
 156 600 l 1
 321 341 l 1
 406 348 442 405 442 472 c 2
 442 600 l 1
 529 600 l 1
 529 464 l 2
 529 386 474 287 367 269 c 1
EndSplineSet
EndChar
StartChar: afii57687
Encoding: 329 1511 171
Width: 616
Flags: W
HStem: -200 21<67 154 67 67> 524 76<67 468>
VStem: 67 87<-200 426> 468 87<261 524 524 524>
Fore
468 261 m 2
 468 524 l 1
 67 524 l 1
 67 600 l 1
 555 600 l 1
 555 255 l 2
 555 132 443 33 304 33 c 2
 243 33 l 1
 243 109 l 1
 297 109 l 2
 391 109 468 177 468 261 c 2
154 426 m 1
 154 -200 l 1
 67 -200 l 1
 67 426 l 1
 154 426 l 1
EndSplineSet
EndChar
StartChar: afii57688
Encoding: 330 1512 172
Width: 557
Flags: W
HStem: 0 21<413 500 413 413> 524 76<42 242>
VStem: 413 87<0 372 372 378>
Fore
242 524 m 2
 42 524 l 1
 42 600 l 1
 249 600 l 2
 388 600 500 501 500 378 c 2
 500 0 l 1
 413 0 l 1
 413 372 l 2
 413 456 336 524 242 524 c 2
EndSplineSet
EndChar
StartChar: afii57689
Encoding: 331 1513 173
Width: 786
Flags: W
HStem: 0 76<354 436> 224 76<156 251 251 252 156 156> 580 20<65 152 152 152 351 438 438 438 638 725 725 725>
VStem: 65 87<300 600> 351 87<393 600> 638 87<262 600>
Fore
252 224 m 2
 156 224 l 1
 175 139 257 76 354 76 c 2
 436 76 l 2
 548 76 638 159 638 262 c 2
 638 600 l 1
 725 600 l 1
 725 262 l 2
 725 117 596 0 436 0 c 2
 354 0 l 2
 194 0 65 117 65 262 c 2
 65 600 l 1
 152 600 l 1
 152 300 l 1
 251 300 l 2
 306 300 351 342 351 393 c 2
 351 600 l 1
 438 600 l 1
 438 393 l 2
 438 300 355 224 252 224 c 2
EndSplineSet
EndChar
StartChar: afii57690
Encoding: 332 1514 174
Width: 697
Flags: W
HStem: -5 76<79.5 112> 524 76<82 152 239 239 239 382>
VStem: 152 87<149 524> 553 87<0 372 372 378>
Fore
40 0 m 1
 40 77 l 1
 53 73 67 71 82 71 c 0
 142 71 152 106 152 149 c 2
 152 524 l 1
 82 524 l 1
 82 600 l 1
 389 600 l 2
 528 600 640 501 640 378 c 2
 640 0 l 1
 553 0 l 1
 553 372 l 2
 553 456 476 524 382 524 c 2
 239 524 l 1
 239 142 l 2
 239 61 192 -5 88 -5 c 0
 71 -5 55 -3 40 0 c 1
EndSplineSet
EndChar
StartChar: afii57716
Encoding: 333 1520 175
Width: 444
Flags: W
HStem: 0 21<67 67 67 154 289 289 289 376> 580 20<67 154 154 154 289 376 376 376>
VStem: 67 87<0 600> 289 87<0 600>
Fore
289 0 m 1
 289 600 l 1
 376 600 l 1
 376 0 l 1
 289 0 l 1
67 0 m 1xe0
 67 600 l 1
 154 600 l 1
 154 0 l 1
 67 0 l 1xe0
EndSplineSet
EndChar
StartChar: afii57717
Encoding: 334 1521 176
Width: 432
Flags: W
HStem: 0 21<277 277 277 364> 580 20<63 150 150 150 277 364 364 364>
VStem: 63 87<321 600> 277 87<0 600>
Fore
63 600 m 1
 150 600 l 1
 150 321 l 1
 63 286 l 1
 63 600 l 1
277 0 m 1xd0
 277 600 l 1
 364 600 l 1
 364 0 l 1
 277 0 l 1xd0
EndSplineSet
EndChar
StartChar: afii57718
Encoding: 335 1522 177
Width: 420
Flags: W
HStem: 580 20<63 150 150 150 273 360 360 360>
VStem: 63 87<321 600> 273 87<321 600>
Fore
273 600 m 1
 360 600 l 1
 360 321 l 1
 273 286 l 1
 273 600 l 1
63 600 m 1xc0
 150 600 l 1
 150 321 l 1
 63 286 l 1
 63 600 l 1xc0
EndSplineSet
EndChar
StartChar: uni05F3
Encoding: 336 1523 178
Width: 184
Flags: W
HStem: 464 245<66 105 66 66>
VStem: 39 93<598 709>
Fore
39 709 m 1
 132 709 l 1
 132 598 l 1
 105 464 l 1
 66 464 l 1
 39 598 l 1
 39 709 l 1
EndSplineSet
EndChar
StartChar: uni05F4
Encoding: 337 1524 179
Width: 344
Flags: W
HStem: 464 245<66 105 66 66 226 226 226 265>
VStem: 39 93<598 709> 199 93<598 709>
Fore
39 709 m 1
 132 709 l 1
 132 598 l 1
 105 464 l 1
 66 464 l 1
 39 598 l 1
 39 709 l 1
199 709 m 1
 292 709 l 1
 292 598 l 1
 265 464 l 1
 226 464 l 1
 199 598 l 1
 199 709 l 1
EndSplineSet
EndChar
StartChar: uni05F5
Encoding: 338 1525 180
Width: 222
Flags: MW
HStem: 0 21<67 67 67 154> 580 20<67 154 154 154>
VStem: 67 87<0 250 350 600>
Fore
67 350 m 1
 67 600 l 1
 154 600 l 1
 154 350 l 1
 67 350 l 1
67 0 m 1
 67 250 l 1
 154 250 l 1
 154 0 l 1
 67 0 l 1
EndSplineSet
EndChar
StartChar: uni05F6
Encoding: 339 1526 181
Width: 388
Flags: MW
HStem: 0 76<144 332> 524 76<296 304 304 318>
VStem: 57 87<76 372>
Fore
304 524 m 2
 221 524 144 456 144 372 c 2
 144 76 l 1
 332 76 l 1
 332 0 l 1
 57 0 l 1
 57 378 l 2
 57 501 172 600 296 600 c 2
 318 600 l 1
 318 524 l 1
 304 524 l 2
EndSplineSet
EndChar
StartChar: uni05F7
Encoding: 340 1527 182
Width: 616
Flags: MW
HStem: -200 21<67 154 67 67> 33 76<243 297 297 304> 524 76<154 154 154 468>
VStem: 67 87<-200 524> 468 87<261 524 524 524>
Fore
154 524 m 1
 154 -200 l 1
 67 -200 l 1
 67 600 l 1
 555 600 l 1
 555 255 l 2
 555 132 443 33 304 33 c 2
 243 33 l 1
 243 109 l 1
 297 109 l 2
 391 109 468 177 468 261 c 2
 468 524 l 1
 154 524 l 1
EndSplineSet
EndChar
StartChar: endash
Encoding: 345 8211 187
Width: 507
Flags: MW
HStem: 274 76<38 453>
Fore
453 274 m 1
 38 274 l 1
 38 350 l 1
 453 350 l 1
 453 274 l 1
EndSplineSet
EndChar
StartChar: emdash
Encoding: 346 8212 188
Width: 807
Flags: MW
HStem: 274 76<38 753>
Fore
753 274 m 1
 38 274 l 1
 38 350 l 1
 753 350 l 1
 753 274 l 1
EndSplineSet
EndChar
StartChar: afii00208
Encoding: 347 8213 189
Width: 1007
Flags: MW
HStem: 274 76<38 953>
Fore
953 274 m 1
 38 274 l 1
 38 350 l 1
 953 350 l 1
 953 274 l 1
EndSplineSet
EndChar
StartChar: quoteright
Encoding: 348 8217 190
Width: 184
Flags: W
HStem: 464 245<66 105 66 66>
VStem: 39 93<598 709>
Fore
39 709 m 1
 132 709 l 1
 132 598 l 1
 105 464 l 1
 66 464 l 1
 39 598 l 1
 39 709 l 1
EndSplineSet
EndChar
StartChar: quotesinglbase
Encoding: 349 8218 191
Width: 184
Flags: W
HStem: -141 245<66 105 66 66>
VStem: 39 93<-7 104>
Fore
39 104 m 1
 132 104 l 1
 132 -7 l 1
 105 -141 l 1
 66 -141 l 1
 39 -7 l 1
 39 104 l 1
EndSplineSet
EndChar
StartChar: quotedblright
Encoding: 350 8221 192
Width: 344
Flags: W
HStem: 464 245<66 105 66 66 226 226 226 265>
VStem: 39 93<598 709> 199 93<598 709>
Fore
39 709 m 1
 132 709 l 1
 132 598 l 1
 105 464 l 1
 66 464 l 1
 39 598 l 1
 39 709 l 1
199 709 m 1
 292 709 l 1
 292 598 l 1
 265 464 l 1
 226 464 l 1
 199 598 l 1
 199 709 l 1
EndSplineSet
EndChar
StartChar: quotedblbase
Encoding: 351 8222 193
Width: 344
Flags: W
HStem: -141 245<66 105 66 66 226 226 226 265>
VStem: 39 93<-7 104> 199 93<-7 104>
Fore
39 104 m 1
 132 104 l 1
 132 -7 l 1
 105 -141 l 1
 66 -141 l 1
 39 -7 l 1
 39 104 l 1
199 104 m 1
 292 104 l 1
 292 -7 l 1
 265 -141 l 1
 226 -141 l 1
 199 -7 l 1
 199 104 l 1
EndSplineSet
EndChar
StartChar: afii57636
Encoding: 352 8362 194
Width: 879
Flags: MW
HStem: 0 76<362 605 605 611> 524 76<152 420 152 152>
VStem: 65 87<0 524> 275 87<76 375> 491 87<195 476 476 486> 713 87<154 600>
Fore
491 476 m 2
 491 502 459 524 420 524 c 2
 152 524 l 1
 152 0 l 1
 65 0 l 1
 65 600 l 1
 428 600 l 2
 511 600 578 549 578 486 c 2
 578 195 l 1
 491 195 l 1
 491 476 l 2
605 76 m 2
 665 76 713 111 713 154 c 2
 713 600 l 1
 800 600 l 1
 800 147 l 2
 800 66 715 0 611 0 c 2
 275 0 l 1
 275 375 l 1
 362 375 l 1
 362 76 l 1
 605 76 l 2
EndSplineSet
EndChar
StartChar: Euro
Encoding: 353 8364 195
Width: 585
Flags: MW
HStem: 0 76 254 59<24 78 174 174 174 390> 379 59<24 79 175 439>
Fore
369 -20 m 0
 304 -20 231 6 178 61 c 0
 130 111 98 177 85 254 c 1
 2 254 l 1
 24 313 l 1
 78 313 l 1
 78 322 77 331 77 340 c 0
 77 353 78 366 79 379 c 1
 2 379 l 1
 24 438 l 1
 87 438 l 1
 101 509 131 572 174 619 c 0
 226 676 301 706 394 706 c 0
 458 706 511 692 553 665 c 1
 524 595 l 1
 482 619 439 628 383 628 c 0
 276 628 201 558 175 438 c 1
 462 438 l 1
 439 379 l 1
 167 379 l 1
 166 367 166 354 166 341 c 0
 166 331 166 322 167 313 c 1
 414 313 l 1
 390 254 l 1
 174 254 l 1
 199 132 284 58 370 58 c 0
 426 58 464 64 507 86 c 1
 536 16 l 1
 488 -11 434 -20 369 -20 c 0
EndSplineSet
EndChar
StartChar: SF110000
Encoding: 354 9474 196
Width: 212
Flags: MW
VStem: 62 87<-300 900>
Fore
62 -300 m 1
 62 900 l 1
 149 900 l 1
 149 -300 l 1
 62 -300 l 1
EndSplineSet
EndChar
StartChar: uni25CC
Encoding: 355 9676 197
Width: 615
Flags: W
Fore
54 173 m 1
 114 201 l 1
 104 222 97 245 92 267 c 1
 27 255 l 1
 33 227 42 198 54 173 c 1
584 345 m 1
 519 333 l 1
 515 355 508 378 498 399 c 1
 557 427 l 1
 570 402 579 373 584 345 c 1
177 49 m 1
 209 107 l 1
 189 118 169 132 153 148 c 1
 107 100 l 1
 128 80 152 63 177 49 c 1
505 500 m 1
 459 452 l 1
 443 468 423 482 403 493 c 1
 435 551 l 1
 460 537 484 520 505 500 c 1
584 255 m 1
 519 267 l 1
 515 245 508 222 498 201 c 1
 557 173 l 1
 570 198 579 227 584 255 c 1
54 427 m 1
 114 399 l 1
 104 378 97 355 92 333 c 1
 27 345 l 1
 33 373 42 402 54 427 c 1
505 100 m 1
 459 148 l 1
 443 132 423 118 403 107 c 1
 435 49 l 1
 460 63 484 80 505 100 c 1
177 551 m 1
 209 493 l 1
 189 482 169 468 153 452 c 1
 107 500 l 1
 128 520 152 537 177 551 c 1
349 21 m 1
 340 87 l 1
 318 84 294 84 271 87 c 1
 263 21 l 1
 291 18 321 18 349 21 c 1
349 579 m 1
 340 513 l 1
 318 516 294 516 271 513 c 1
 263 579 l 1
 291 582 321 582 349 579 c 1
EndSplineSet
EndChar
StartChar: uniE801
Encoding: 356 59393 198
Width: 222
Flags: W
HStem: 0 21<67 67 67 154> 580 20<67 154 154 154> 711 20<-32 38 38 38>
VStem: 67 87<0 600>
Fore
-32 731 m 1
 38 731 l 1
 38 660 l 1
 -32 660 l 1
 -32 731 l 1
67 0 m 1xd0
 67 600 l 1
 154 600 l 1
 154 0 l 1
 67 0 l 1xd0
EndSplineSet
EndChar
StartChar: uniE802
Encoding: 357 59394 199
Width: 536
Flags: W
HStem: -200 21<392 479 392 392> 524 76<43 221>
VStem: 251 71 392 87<-200 372 372 378>
Fore
251 215 m 1
 321 215 l 1
 321 145 l 1
 251 145 l 1
 251 215 l 1
251 339 m 1
 321 339 l 1
 321 268 l 1
 251 268 l 1
 251 339 l 1
392 372 m 2xd0
 392 456 315 524 221 524 c 2
 43 524 l 1
 43 600 l 1
 228 600 l 2
 367 600 479 501 479 378 c 2
 479 -200 l 1
 392 -200 l 1
 392 372 l 2xd0
EndSplineSet
EndChar
StartChar: uniE803
Encoding: 358 59395 200
Width: 536
Flags: W
HStem: -200 21<392 479 392 392> 271 71<97 187 257 347 257 257> 524 76<43 221>
VStem: 187 71 392 87<-200 372 372 378>
Fore
257 271 m 1
 257 154 l 1
 187 154 l 1
 187 271 l 1
 97 271 l 1
 97 342 l 1
 347 342 l 1
 347 271 l 1
 257 271 l 1
392 372 m 2xa8
 392 456 315 524 221 524 c 2
 43 524 l 1
 43 600 l 1
 228 600 l 2
 367 600 479 501 479 378 c 2
 479 -200 l 1
 392 -200 l 1
 392 372 l 2xa8
EndSplineSet
EndChar
StartChar: uniFB1D
Encoding: 359 64285 201
Width: 210
Flags: W
HStem: 580 20<63 150 150 150>
VStem: 63 87<321 600>
Fore
72 220 m 1
 142 220 l 1
 142 149 l 1
 72 149 l 1
 72 220 l 1
63 600 m 1xc0
 150 600 l 1
 150 321 l 1
 63 286 l 1
 63 600 l 1xc0
EndSplineSet
Ligature: 1 0 'liga' afii57673 afii57793
EndChar
StartChar: uniFB1E
Encoding: 360 64286 202
Width: 0
Flags: MW
HStem: 711 20<-16 16>
Fore
-73 775 m 1
 -59 749 -32 731 0 731 c 0
 32 731 59 749 73 775 c 1
 139 750 l 1
 115 697 62 660 0 660 c 0
 -62 660 -115 697 -139 750 c 1
 -73 775 l 1
EndSplineSet
EndChar
StartChar: afii57705
Encoding: 361 64287 203
Width: 420
Flags: MW
HStem: 149 71<118 298> 580 20<73 160 160 160 273 360 360 360>
VStem: 73 87<321 600> 273 87<321 600>
Fore
118 220 m 1
 298 220 l 1
 298 149 l 1
 118 149 l 1
 118 220 l 1
73 600 m 1
 160 600 l 1
 160 321 l 1
 73 286 l 1
 73 600 l 1
273 600 m 1
 360 600 l 1
 360 321 l 1
 273 286 l 1
 273 600 l 1
EndSplineSet
Ligature: 1 1 'liga' afii57718 afii57798
EndChar
StartChar: uniFB20
Encoding: 362 64288 204
Width: 597
Flags: MW
HStem: 0 76<42 207> 580 20<68 158 158 158 449 536 536 536>
VStem: 449 87<226 600>
Fore
296 78 m 1
 382 88 449 150 449 226 c 2
 449 600 l 1
 536 600 l 1
 536 226 l 2
 536 101 417 0 270 0 c 2
 42 0 l 1
 42 76 l 1
 207 76 l 1
 68 600 l 1
 158 600 l 1
 296 78 l 1
EndSplineSet
EndChar
StartChar: uniFB21
Encoding: 363 64289 205
Width: 1200
Flags: MW
HStem: 0 21<71 158 71 71 982 1137 982 982> 580 20<63 215 215 215 1042 1129 1129 1129>
VStem: 71 87<0 141> 1042 87<459 600>
Fore
894 158 m 1
 1137 0 l 1
 982 0 l 1
 379 394 l 1
 220 337 158 260 158 141 c 2
 158 0 l 1
 71 0 l 1
 71 141 l 2
 71 283 160 395 305 442 c 1
 63 600 l 1
 215 600 l 1
 819 207 l 1
 978 263 1042 340 1042 459 c 2
 1042 600 l 1
 1129 600 l 1
 1129 459 l 2
 1129 317 1038 205 894 158 c 1
EndSplineSet
EndChar
StartChar: uniFB22
Encoding: 364 64290 206
Width: 1158
Flags: MW
HStem: 0 21<928 1015 928 928> 524 76<43 928 1015 1098 1015 1015>
VStem: 928 87<0 524>
Fore
1015 524 m 1
 1015 0 l 1
 928 0 l 1
 928 524 l 1
 43 524 l 1
 43 600 l 1
 1098 600 l 1
 1098 524 l 1
 1015 524 l 1
EndSplineSet
EndChar
StartChar: uniFB23
Encoding: 365 64291 207
Width: 1182
Flags: MW
HStem: 0 21<68 68 68 155 1038 1125 1038 1038> 524 76<68 867>
VStem: 68 87<0 375> 1038 87<0 372 372 378>
Fore
1038 372 m 2
 1038 456 961 524 867 524 c 2
 68 524 l 1
 68 600 l 1
 874 600 l 2
 1013 600 1125 501 1125 378 c 2
 1125 0 l 1
 1038 0 l 1
 1038 372 l 2
68 0 m 1
 68 375 l 1
 155 375 l 1
 155 0 l 1
 68 0 l 1
EndSplineSet
EndChar
StartChar: uniFB24
Encoding: 366 64292 208
Width: 1110
Flags: MW
HStem: 0 76<62 776 776 782> 524 76<62 776>
VStem: 984 87<229 371 371 378>
Fore
984 229 m 2
 984 371 l 2
 984 455 891 524 776 524 c 2
 62 524 l 1
 62 600 l 1
 782 600 l 2
 942 600 1071 501 1071 378 c 2
 1071 222 l 2
 1071 99 942 0 782 0 c 2
 62 0 l 1
 62 76 l 1
 776 76 l 2
 891 76 984 145 984 229 c 2
EndSplineSet
EndChar
StartChar: uniFB25
Encoding: 367 64293 209
Width: 1160
Flags: MW
HStem: 0 21<720 807 720 720> 524 76<129 1013>
VStem: 42 87<600 749> 720 87<0 0>
Fore
808 86 m 2
 807 0 l 1
 720 0 l 1
 720 103 727 159 778 228 c 0
 824 291 921 336 956 358 c 0
 993 381 1007 409 1013 452 c 2
 1013 524 l 1
 42 524 l 1
 42 749 l 1
 129 749 l 1
 129 600 l 1
 1100 600 l 1
 1100 447 l 2
 1100 398 1076 356 1044 327 c 0
 986 274 906 250 858 196 c 0
 825 159 814 129 808 86 c 2
EndSplineSet
EndChar
StartChar: uniFB26
Encoding: 368 64294 210
Width: 1183
Flags: MW
HStem: 0 76<155 1039> 524 76<155 831 155 155>
VStem: 68 87<76 524> 1039 87<76 371 371 378>
Fore
831 524 m 2
 155 524 l 1
 155 76 l 1
 1039 76 l 1
 1039 371 l 2
 1039 455 946 524 831 524 c 2
1126 378 m 2
 1126 0 l 1
 68 0 l 1
 68 600 l 1
 837 600 l 2
 997 600 1126 501 1126 378 c 2
EndSplineSet
EndChar
StartChar: uniFB27
Encoding: 369 64295 211
Width: 1107
Flags: MW
HStem: 0 21<963 1050 963 963> 524 76<42 792>
VStem: 963 87<0 372 372 378>
Fore
792 524 m 2
 42 524 l 1
 42 600 l 1
 799 600 l 2
 938 600 1050 501 1050 378 c 2
 1050 0 l 1
 963 0 l 1
 963 372 l 2
 963 456 886 524 792 524 c 2
EndSplineSet
EndChar
StartChar: uniFB28
Encoding: 370 64296 212
Width: 1247
Flags: MW
HStem: -5 76<79.5 112> 524 76<92 152 239 239 239 932>
VStem: 152 87<149 524> 1103 87<0 372 372 378>
Fore
40 0 m 1
 40 77 l 1
 53 73 67 71 82 71 c 0
 142 71 152 106 152 149 c 2
 152 524 l 1
 92 524 l 1
 92 600 l 1
 939 600 l 2
 1078 600 1190 501 1190 378 c 2
 1190 0 l 1
 1103 0 l 1
 1103 372 l 2
 1103 456 1026 524 932 524 c 2
 239 524 l 1
 239 142 l 2
 239 61 192 -5 88 -5 c 0
 71 -5 55 -3 40 0 c 1
EndSplineSet
EndChar
StartChar: uniFB29
Encoding: 371 64297 213
Width: 584
Flags: MW
HStem: 197 70<50 257 327 534>
VStem: 257 70<267 474>
Fore
534 267 m 1
 534 197 l 1
 50 197 l 1
 50 267 l 1
 257 267 l 1
 257 474 l 1
 327 474 l 1
 327 267 l 1
 534 267 l 1
EndSplineSet
EndChar
StartChar: afii57694
Encoding: 372 64298 214
Width: 786
Flags: W
HStem: 0 76<354 436> 224 76<156 251 251 252 156 156> 580 20<65 152 152 152 351 438 438 438 638 725 725 725>
VStem: 65 87<300 600> 351 87<393 600> 638 87<262 600>
Fore
644 711 m 1
 715 711 l 1
 715 640 l 1
 644 640 l 1
 644 711 l 1
252 224 m 2xfc
 156 224 l 1
 175 139 257 76 354 76 c 2
 436 76 l 2
 548 76 638 159 638 262 c 2
 638 600 l 1
 725 600 l 1
 725 262 l 2
 725 117 596 0 436 0 c 2
 354 0 l 2
 194 0 65 117 65 262 c 2
 65 600 l 1
 152 600 l 1
 152 300 l 1
 251 300 l 2
 306 300 351 342 351 393 c 2
 351 600 l 1
 438 600 l 1
 438 393 l 2
 438 300 355 224 252 224 c 2xfc
EndSplineSet
Ligature: 1 1 'ccmp' afii57689 afii57804
EndChar
StartChar: afii57695
Encoding: 373 64299 215
Width: 786
Flags: W
HStem: 0 76<354 436> 224 76<156 251 251 252 156 156> 580 20<65 152 152 152 351 438 438 438 638 725 725 725>
VStem: 65 87<300 600> 351 87<393 600> 638 87<262 600>
Fore
75 711 m 1
 146 711 l 1
 146 640 l 1
 75 640 l 1
 75 711 l 1
252 224 m 2xfc
 156 224 l 1
 175 139 257 76 354 76 c 2
 436 76 l 2
 548 76 638 159 638 262 c 2
 638 600 l 1
 725 600 l 1
 725 262 l 2
 725 117 596 0 436 0 c 2
 354 0 l 2
 194 0 65 117 65 262 c 2
 65 600 l 1
 152 600 l 1
 152 300 l 1
 251 300 l 2
 306 300 351 342 351 393 c 2
 351 600 l 1
 438 600 l 1
 438 393 l 2
 438 300 355 224 252 224 c 2xfc
EndSplineSet
Ligature: 1 1 'ccmp' afii57689 afii57803
EndChar
StartChar: uniFB2C
Encoding: 374 64300 216
Width: 786
Flags: W
HStem: 0 76<289 371> 224 76<91 186 186 187 91 91> 580 20<0 87 87 87 286 373 373 373 573 660 660 660>
VStem: 65 87 351 87 638 87
Fore
644 711 m 1
 715 711 l 1
 715 640 l 1
 644 640 l 1
 644 711 l 1
0 0 m 0
 0 0 l 0
391 243 m 1
 461 243 l 1
 461 172 l 1
 391 172 l 1
 391 243 l 1
187 224 m 2xfc
 91 224 l 1
 110 139 192 76 289 76 c 2
 371 76 l 2
 483 76 573 159 573 262 c 2
 573 600 l 1
 660 600 l 1
 660 262 l 2
 660 117 531 0 371 0 c 2
 289 0 l 2
 129 0 0 117 0 262 c 2
 0 600 l 1
 87 600 l 1
 87 300 l 1
 186 300 l 2
 241 300 286 342 286 393 c 2
 286 600 l 1
 373 600 l 1
 373 393 l 2
 373 300 290 224 187 224 c 2xfc
EndSplineSet
Ligature: 1 1 'ccmp' uniFB49 afii57804
EndChar
StartChar: uniFB2D
Encoding: 375 64301 217
Width: 786
Flags: W
HStem: 0 76<289 371> 224 76<91 186 186 187 91 91> 580 20<0 87 87 87 286 373 373 373 573 660 660 660>
VStem: 65 87 351 87 638 87
Fore
75 711 m 1
 146 711 l 1
 146 640 l 1
 75 640 l 1
 75 711 l 1
0 0 m 0
 0 0 l 0
391 243 m 1
 461 243 l 1
 461 172 l 1
 391 172 l 1
 391 243 l 1
187 224 m 2xfc
 91 224 l 1
 110 139 192 76 289 76 c 2
 371 76 l 2
 483 76 573 159 573 262 c 2
 573 600 l 1
 660 600 l 1
 660 262 l 2
 660 117 531 0 371 0 c 2
 289 0 l 2
 129 0 0 117 0 262 c 2
 0 600 l 1
 87 600 l 1
 87 300 l 1
 186 300 l 2
 241 300 286 342 286 393 c 2
 286 600 l 1
 373 600 l 1
 373 393 l 2
 373 300 290 224 187 224 c 2xfc
EndSplineSet
Ligature: 1 1 'ccmp' uniFB49 afii57803
EndChar
StartChar: uniFB2E
Encoding: 376 64302 218
Width: 645
Flags: W
HStem: -131 71<199 449> 0 21<71 158 71 71 485 485 485 587> 580 20<63 165 165 165 492 579 579 579>
VStem: 71 87<0 141> 492 87<450 600>
Fore
199 -60 m 1
 449 -60 l 1
 449 -131 l 1
 199 -131 l 1
 199 -60 l 1
257 325 m 1x78
 197 282 158 209 158 141 c 2
 158 0 l 1
 71 0 l 1
 71 141 l 2
 71 235 130 340 211 390 c 1
 63 600 l 1
 165 600 l 1
 393 276 l 1
 454 320 492 381 492 450 c 2
 492 600 l 1
 579 600 l 1
 579 450 l 2
 579 350 523 263 438 212 c 1
 587 0 l 1
 485 0 l 1
 257 325 l 1x78
EndSplineSet
Ligature: 1 1 'ccmp' afii57664 afii57798
EndChar
StartChar: uniFB2F
Encoding: 377 64303 219
Width: 645
Flags: W
HStem: -131 71<197 287 357 447 357 357> 0 21<71 158 71 71 485 485 485 587> 580 20<63 165 165 165 492 579 579 579>
VStem: 71 87<0 141> 287 71 492 87<450 600>
Fore
357 -131 m 1
 357 -248 l 1
 287 -248 l 1
 287 -131 l 1
 197 -131 l 1
 197 -60 l 1
 447 -60 l 1
 447 -131 l 1
 357 -131 l 1
257 325 m 1x74
 197 282 158 209 158 141 c 2
 158 0 l 1
 71 0 l 1
 71 141 l 2
 71 235 130 340 211 390 c 1
 63 600 l 1
 165 600 l 1
 393 276 l 1
 454 320 492 381 492 450 c 2
 492 600 l 1
 579 600 l 1
 579 450 l 2
 579 350 523 263 438 212 c 1
 587 0 l 1
 485 0 l 1
 257 325 l 1x74
EndSplineSet
Ligature: 1 1 'ccmp' afii57664 afii57797
EndChar
StartChar: uniFB30
Encoding: 378 64304 220
Width: 645
Flags: W
HStem: 0 21<71 158 71 71 485 485 485 587> 580 20<63 165 165 165 492 579 579 579>
VStem: 71 87<0 141> 492 87<450 600>
Fore
232 195 m 1
 302 195 l 1
 302 124 l 1
 232 124 l 1
 232 195 l 1
257 325 m 1xf0
 197 282 158 209 158 141 c 2
 158 0 l 1
 71 0 l 1
 71 141 l 2
 71 235 130 340 211 390 c 1
 63 600 l 1
 165 600 l 1
 393 276 l 1
 454 320 492 381 492 450 c 2
 492 600 l 1
 579 600 l 1
 579 450 l 2
 579 350 523 263 438 212 c 1
 587 0 l 1
 485 0 l 1
 257 325 l 1xf0
EndSplineSet
Ligature: 1 1 'ccmp' afii57664 afii57807
EndChar
StartChar: uniFB31
Encoding: 379 64305 221
Width: 603
Flags: W
HStem: 0 76<65 412 499 573> 524 76<65 204>
VStem: 412 87<76 371 371 378>
Fore
236 341 m 1
 306 341 l 1
 306 270 l 1
 236 270 l 1
 236 341 l 1
204 524 m 2xe0
 65 524 l 1
 65 600 l 1
 210 600 l 2
 370 600 499 501 499 378 c 2
 499 76 l 1
 573 76 l 1
 573 0 l 1
 65 0 l 1
 65 76 l 1
 412 76 l 1
 412 371 l 2
 412 455 319 524 204 524 c 2xe0
EndSplineSet
Ligature: 1 1 'ccmp' afii57665 afii57807
EndChar
StartChar: uniFB32
Encoding: 380 64306 222
Width: 476
Flags: W
HStem: 0 21<35 152 35 35 350 438 350 350> 524 76<97 118>
Fore
176 341 m 1
 246 341 l 1
 246 270 l 1
 176 270 l 1
 176 341 l 1
118 524 m 2xc0
 97 524 l 1
 97 600 l 1
 126 600 l 2
 252 600 369 518 388 379 c 2
 438 0 l 1
 350 0 l 1
 327 172 l 1
 152 0 l 1
 35 0 l 1
 242 203 l 1
 323 203 l 1
 301 373 l 2
 288 473 208 524 118 524 c 2xc0
EndSplineSet
Ligature: 1 1 'ccmp' afii57666 afii57807
EndChar
StartChar: uniFB33
Encoding: 381 64307 223
Width: 608
Flags: W
HStem: 0 21<378 465 378 378> 524 76<43 378 465 548 465 465>
VStem: 378 87<0 524>
Fore
234 341 m 1
 304 341 l 1
 304 270 l 1
 234 270 l 1
 234 341 l 1
465 524 m 1xe0
 465 0 l 1
 378 0 l 1
 378 524 l 1
 43 524 l 1
 43 600 l 1
 548 600 l 1
 548 524 l 1
 465 524 l 1xe0
EndSplineSet
Ligature: 1 1 'ccmp' afii57667 afii57807
EndChar
StartChar: uniFB34
Encoding: 382 64308 224
Width: 632
Flags: W
HStem: 0 21<68 68 68 155 488 575 488 488> 524 76<68 317>
VStem: 68 87<0 375> 488 87<0 372 372 378>
Fore
286 341 m 1
 356 341 l 1
 356 270 l 1
 286 270 l 1
 286 341 l 1
488 372 m 2xf0
 488 456 411 524 317 524 c 2
 68 524 l 1
 68 600 l 1
 324 600 l 2
 463 600 575 501 575 378 c 2
 575 0 l 1
 488 0 l 1
 488 372 l 2xf0
68 0 m 1
 68 375 l 1
 155 375 l 1
 155 0 l 1
 68 0 l 1
EndSplineSet
Ligature: 1 1 'ccmp' afii57668 afii57807
EndChar
StartChar: afii57723
Encoding: 383 64309 225
Width: 277
Flags: W
HStem: 0 21<122 122 122 209> 580 20<122 209 209 209>
VStem: 122 87<0 600>
Fore
22 341 m 1
 92 341 l 1
 92 270 l 1
 22 270 l 1
 22 341 l 1
122 0 m 1xe0
 122 600 l 1
 209 600 l 1
 209 0 l 1
 122 0 l 1xe0
EndSplineSet
Ligature: 1 1 'ccmp' afii57669 afii57807
EndChar
StartChar: uniFB36
Encoding: 384 64310 226
Width: 361
Flags: W
HStem: 0 21<131 218 131 131> 524 76<44 131 218 301 218 218>
VStem: 131 87<0 524>
Fore
22 341 m 1
 92 341 l 1
 92 270 l 1
 22 270 l 1
 22 341 l 1
218 524 m 1xe0
 218 0 l 1
 131 0 l 1
 131 524 l 1
 44 524 l 1
 44 600 l 1
 301 600 l 1
 301 524 l 1
 218 524 l 1xe0
EndSplineSet
Ligature: 1 1 'ccmp' afii57670 afii57807
EndChar
StartChar: uniFB37
Encoding: 385 64311 227
Width: 653
Flags: W
HStem: 0 21<68 155 68 68 509 509 509 596> 524 76<155 338 155 155>
VStem: 68 87<0 524> 509 87<0 372 372 378>
Fore
509 372 m 2
 509 456 432 524 338 524 c 2
 155 524 l 1
 155 0 l 1
 68 0 l 1
 68 600 l 1
 345 600 l 2
 484 600 596 501 596 378 c 2
 596 0 l 1
 509 0 l 1
 509 372 l 2
286 341 m 1
 356 341 l 1
 356 270 l 1
 286 270 l 1
 286 341 l 1
EndSplineSet
EndChar
StartChar: uniFB38
Encoding: 386 64312 228
Width: 618
Flags: W
HStem: -8 76<273 367.5> 532 76<306.5 367.5>
VStem: 66 87<214 220 220 600> 488 87<220 380 380 386>
Fore
288 341 m 1
 358 341 l 1
 358 270 l 1
 288 270 l 1
 288 341 l 1
242 597 m 1xf0
 267 604 293 608 320 608 c 0
 459 608 575 509 575 386 c 2
 575 214 l 2
 575 91 459 -8 320 -8 c 0
 182 -8 66 91 66 214 c 2
 66 600 l 1
 153 600 l 1
 153 220 l 2
 153 136 226 68 320 68 c 0
 415 68 488 136 488 220 c 2
 488 380 l 2
 488 464 415 532 320 532 c 0
 292 532 266 526 242 515 c 1
 242 597 l 1xf0
EndSplineSet
Ligature: 1 1 'ccmp' afii57672 afii57807
EndChar
StartChar: uniFB39
Encoding: 387 64313 229
Width: 285
Flags: W
HStem: 580 20<138 225 225 225>
VStem: 138 87<321 600>
Fore
22 405 m 1
 92 405 l 1
 92 334 l 1
 22 334 l 1
 22 405 l 1
138 600 m 1xc0
 225 600 l 1
 225 321 l 1
 138 286 l 1
 138 600 l 1xc0
EndSplineSet
Ligature: 1 1 'ccmp' afii57673 afii57807
EndChar
StartChar: uniFB3A
Encoding: 388 64314 230
Width: 536
Flags: W
HStem: -200 21<392 479 392 392> 524 76<43 221>
VStem: 392 87<-200 372 372 378>
Fore
230 341 m 1
 300 341 l 1
 300 270 l 1
 230 270 l 1
 230 341 l 1
392 372 m 2xe0
 392 456 315 524 221 524 c 2
 43 524 l 1
 43 600 l 1
 228 600 l 2
 367 600 479 501 479 378 c 2
 479 -200 l 1
 392 -200 l 1
 392 372 l 2xe0
EndSplineSet
Ligature: 1 1 'ccmp' afii57674 afii57807
EndChar
StartChar: uniFB3B
Encoding: 389 64315 231
Width: 560
Flags: W
HStem: 0 76<62 226 226 232> 524 76<62 226>
VStem: 434 87<229 371 371 378>
Fore
240 341 m 1
 310 341 l 1
 310 270 l 1
 240 270 l 1
 240 341 l 1
434 229 m 2xe0
 434 371 l 2
 434 455 341 524 226 524 c 2
 62 524 l 1
 62 600 l 1
 232 600 l 2
 392 600 521 501 521 378 c 2
 521 222 l 2
 521 99 392 0 232 0 c 2
 62 0 l 1
 62 76 l 1
 226 76 l 2
 341 76 434 145 434 229 c 2xe0
EndSplineSet
Ligature: 1 1 'ccmp' afii57675 afii57807
EndChar
StartChar: uniFB3C
Encoding: 390 64316 232
Width: 610
Flags: W
HStem: 0 21<295 382 295 295> 524 76<129 463>
VStem: 42 87<600 750> 295 87<0 99> 463 87<452 524 524 524>
Fore
230 411 m 1
 300 411 l 1
 300 340 l 1
 230 340 l 1
 230 411 l 1
382 99 m 2xf8
 382 0 l 1
 295 0 l 1
 295 106 l 2
 296 155 305 196 331 242 c 0
 373 308 418 317 436 354 c 0
 457 389 463 409 463 452 c 2
 463 524 l 1
 42 524 l 1
 42 750 l 1
 129 750 l 1
 129 600 l 1
 550 600 l 1
 550 447 l 2
 550 398 541 368 514 320 c 0
 473 254 427 246 409 208 c 0
 389 173 382 142 382 99 c 2xf8
EndSplineSet
Ligature: 1 1 'ccmp' afii57676 afii57807
EndChar
StartChar: uniFB3D
Encoding: 391 64317 233
Width: 633
Flags: W
HStem: 0 76<155 489> 524 76<155 281 155 155>
VStem: 68 87<76 524> 489 87<76 371 371 378>
Fore
281 524 m 2
 155 524 l 1
 155 76 l 1
 489 76 l 1
 489 371 l 2
 489 455 396 524 281 524 c 2
576 378 m 2
 576 0 l 1
 68 0 l 1
 68 600 l 1
 287 600 l 2
 447 600 576 501 576 378 c 2
286 341 m 1
 356 341 l 1
 356 270 l 1
 286 270 l 1
 286 341 l 1
EndSplineSet
EndChar
StartChar: uniFB3E
Encoding: 392 64318 234
Width: 631
Flags: W
HStem: 0 76<277 488> 524 76<53 131 219 280 219 219>
VStem: 488 87<76 371 371 378>
Fore
304 341 m 1
 374 341 l 1
 374 270 l 1
 304 270 l 1
 304 341 l 1
280 524 m 2xe0
 219 524 l 1
 161 0 l 1
 73 0 l 1
 131 524 l 1
 53 524 l 1
 53 600 l 1
 286 600 l 2
 446 600 575 501 575 378 c 2
 575 0 l 1
 277 0 l 1
 277 76 l 1
 488 76 l 1
 488 371 l 2
 488 455 395 524 280 524 c 2xe0
EndSplineSet
Ligature: 1 1 'ccmp' afii57678 afii57807
EndChar
StartChar: uniFB3F
Encoding: 393 64319 235
Width: 277
Flags: W
HStem: -200 21<132 132 132 219> 580 20<132 219 219 219>
VStem: 132 87<-200 600>
Fore
132 -200 m 1
 132 600 l 1
 219 600 l 1
 219 -200 l 1
 132 -200 l 1
23 341 m 1
 93 341 l 1
 93 270 l 1
 23 270 l 1
 23 341 l 1
EndSplineSet
EndChar
StartChar: uniFB40
Encoding: 394 64320 236
Width: 388
Flags: W
HStem: 0 76<56 244> 524 76<70 84>
VStem: 244 87<76 372 372 378>
Fore
108 341 m 1
 178 341 l 1
 178 270 l 1
 108 270 l 1
 108 341 l 1
84 524 m 2xe0
 70 524 l 1
 70 600 l 1
 92 600 l 2
 216 600 331 501 331 378 c 2
 331 0 l 1
 56 0 l 1
 56 76 l 1
 244 76 l 1
 244 372 l 2
 244 456 167 524 84 524 c 2xe0
EndSplineSet
Ligature: 1 1 'ccmp' afii57680 afii57807
EndChar
StartChar: uniFB41
Encoding: 395 64321 237
Width: 617
Flags: W
HStem: -8 76<273 367> 524 76<153 316 153 153>
VStem: 66 87<214 220 220 524> 487 87<220 372 372 378>
Fore
284 341 m 1
 354 341 l 1
 354 270 l 1
 284 270 l 1
 284 341 l 1
487 220 m 2xf0
 487 372 l 2
 487 456 410 524 316 524 c 2
 153 524 l 1
 153 220 l 2
 153 136 226 68 320 68 c 0
 414 68 487 136 487 220 c 2xf0
66 214 m 2
 66 600 l 1
 323 600 l 2
 462 600 574 501 574 378 c 2
 574 214 l 2
 574 91 459 -8 320 -8 c 0
 181 -8 66 91 66 214 c 2
EndSplineSet
Ligature: 1 1 'ccmp' afii57681 afii57807
EndChar
StartChar: uniFB42
Encoding: 396 64322 238
Width: 597
Flags: W
HStem: 580 20<90 179 179 179 449 536 536 536>
VStem: 449 87<268 600>
Fore
210 67 m 1
 90 600 l 1
 179 600 l 1
 294 88 l 1
 309 92 l 2
 400 115 449 175 449 268 c 2
 449 600 l 1
 536 600 l 1
 536 267 l 2
 536 130 447 49 333 20 c 2
 41 -55 l 1
 42 24 l 1
 210 67 l 1
304 405 m 1
 374 405 l 1
 374 334 l 1
 304 334 l 1
 304 405 l 1
EndSplineSet
EndChar
StartChar: uniFB43
Encoding: 397 64323 239
Width: 585
Flags: W
HStem: -200 21<441 528 441 441> 243 76<257 291> 524 76<149 270 149 149>
VStem: 62 87<390 397 397 524> 441 87<-200 372 372 378>
Fore
324 410 m 1
 394 410 l 1
 394 339 l 1
 324 339 l 1
 324 410 l 1
62 390 m 2xf8
 62 600 l 1
 277 600 l 2
 416 600 528 501 528 378 c 2
 528 -200 l 1
 441 -200 l 1
 441 372 l 2
 441 456 364 524 270 524 c 2
 149 524 l 1
 149 397 l 2
 149 354 197 319 257 319 c 2
 291 319 l 1
 291 243 l 1
 251 243 l 2
 147 243 62 309 62 390 c 2xf8
EndSplineSet
Ligature: 1 1 'ccmp' afii57683 afii57807
EndChar
StartChar: uniFB44
Encoding: 398 64324 240
Width: 578
Flags: W
HStem: 0 76<68 243 243 249> 243 76<263 297> 524 76<155 243 155 155>
VStem: 68 87<390 397 397 524> 451 87<229 371 371 378>
Fore
336 411 m 1
 406 411 l 1
 406 340 l 1
 336 340 l 1
 336 411 l 1
451 229 m 2xf8
 451 371 l 2
 451 455 358 524 243 524 c 2
 155 524 l 1
 155 397 l 2
 155 354 203 319 263 319 c 2
 297 319 l 1
 297 243 l 1
 257 243 l 2
 153 243 68 309 68 390 c 2
 68 600 l 1
 249 600 l 2
 409 600 538 501 538 378 c 2
 538 222 l 2
 538 99 409 0 249 0 c 2
 68 0 l 1
 68 76 l 1
 243 76 l 2
 358 76 451 145 451 229 c 2xf8
EndSplineSet
Ligature: 1 1 'ccmp' afii57684 afii57807
EndChar
StartChar: uniFB45
Encoding: 399 64325 241
Width: 550
Flags: W
HStem: -200 21<214 301 214 214> 580 20<18 117 117 117 403 490 490 490>
VStem: 214 87<-200 265> 403 87<470 600>
Fore
282 340 m 1
 367 346 403 408 403 470 c 2
 403 600 l 1
 490 600 l 1
 490 463 l 2
 490 378 426 273 301 265 c 1
 301 -200 l 1
 214 -200 l 1
 214 290 l 1
 18 600 l 1
 117 600 l 1
 282 340 l 1
269 518 m 1
 339 518 l 1
 339 447 l 1
 269 447 l 1
 269 518 l 1
EndSplineSet
EndChar
StartChar: uniFB46
Encoding: 400 64326 242
Width: 600
Flags: W
HStem: 0 76<64 390> 580 20<56 156 156 156 442 529 529 529>
VStem: 442 87<472 600>
Fore
148 277 m 1
 218 277 l 1
 218 206 l 1
 148 206 l 1
 148 277 l 1
367 269 m 1xe0
 538 0 l 1
 64 0 l 1
 64 76 l 1
 390 76 l 1
 56 600 l 1
 156 600 l 1
 321 341 l 1
 406 348 442 405 442 472 c 2
 442 600 l 1
 529 600 l 1
 529 464 l 2
 529 386 474 287 367 269 c 1xe0
EndSplineSet
Ligature: 1 1 'ccmp' afii57686 afii57807
EndChar
StartChar: uniFB47
Encoding: 401 64327 243
Width: 616
Flags: W
HStem: -200 21<67 154 67 67> 524 76<67 468>
VStem: 67 87<-200 426> 468 87<261 524 524 524>
Fore
278 341 m 1
 348 341 l 1
 348 270 l 1
 278 270 l 1
 278 341 l 1
468 261 m 2xf0
 468 524 l 1
 67 524 l 1
 67 600 l 1
 555 600 l 1
 555 255 l 2
 555 132 443 33 304 33 c 2
 243 33 l 1
 243 109 l 1
 297 109 l 2
 391 109 468 177 468 261 c 2xf0
154 426 m 1
 154 -200 l 1
 67 -200 l 1
 67 426 l 1
 154 426 l 1
EndSplineSet
Ligature: 1 1 'ccmp' afii57687 afii57807
EndChar
StartChar: uniFB48
Encoding: 402 64328 244
Width: 557
Flags: W
HStem: 0 21<413 500 413 413> 524 76<42 242>
VStem: 413 87<0 372 372 378>
Fore
232 341 m 1
 302 341 l 1
 302 270 l 1
 232 270 l 1
 232 341 l 1
242 524 m 2xe0
 42 524 l 1
 42 600 l 1
 249 600 l 2
 388 600 500 501 500 378 c 2
 500 0 l 1
 413 0 l 1
 413 372 l 2
 413 456 336 524 242 524 c 2xe0
EndSplineSet
Ligature: 1 1 'ccmp' afii57688 afii57807
EndChar
StartChar: uniFB49
Encoding: 403 64329 245
Width: 786
Flags: W
HStem: 0 76<289 371> 224 76<91 186 186 187 91 91> 580 20<0 87 87 87 286 373 373 373 573 660 660 660>
VStem: 65 87 351 87 638 87
Fore
0 0 m 0
 0 0 l 0
391 243 m 1
 461 243 l 1
 461 172 l 1
 391 172 l 1
 391 243 l 1
187 224 m 2xfc
 91 224 l 1
 110 139 192 76 289 76 c 2
 371 76 l 2
 483 76 573 159 573 262 c 2
 573 600 l 1
 660 600 l 1
 660 262 l 2
 660 117 531 0 371 0 c 2
 289 0 l 2
 129 0 0 117 0 262 c 2
 0 600 l 1
 87 600 l 1
 87 300 l 1
 186 300 l 2
 241 300 286 342 286 393 c 2
 286 600 l 1
 373 600 l 1
 373 393 l 2
 373 300 290 224 187 224 c 2xfc
EndSplineSet
Ligature: 1 1 'ccmp' afii57689 afii57807
EndChar
StartChar: uniFB4A
Encoding: 404 64330 246
Width: 697
Flags: W
HStem: -5 76<79.5 112> 524 76<82 152 239 239 239 382>
VStem: 152 87<149 524> 553 87<0 372 372 378>
Fore
366 341 m 1
 436 341 l 1
 436 270 l 1
 366 270 l 1
 366 341 l 1
40 0 m 1xf0
 40 77 l 1
 53 73 67 71 82 71 c 0
 142 71 152 106 152 149 c 2
 152 524 l 1
 82 524 l 1
 82 600 l 1
 389 600 l 2
 528 600 640 501 640 378 c 2
 640 0 l 1
 553 0 l 1
 553 372 l 2
 553 456 476 524 382 524 c 2
 239 524 l 1
 239 142 l 2
 239 61 192 -5 88 -5 c 0
 71 -5 55 -3 40 0 c 1xf0
EndSplineSet
Ligature: 1 1 'ccmp' afii57690 afii57807
EndChar
StartChar: afii57700
Encoding: 405 64331 247
Width: 222
Flags: W
HStem: 0 21<67 67 67 154> 580 20<67 154 154 154> 711 20<76 146 146 146>
VStem: 67 87<0 600>
Fore
76 731 m 1
 146 731 l 1
 146 660 l 1
 76 660 l 1
 76 731 l 1
67 0 m 1xd0
 67 600 l 1
 154 600 l 1
 154 0 l 1
 67 0 l 1xd0
EndSplineSet
Ligature: 1 1 'ccmp' afii57669 afii57806
EndChar
StartChar: uniFB4C
Encoding: 406 64332 248
Width: 603
Flags: W
HStem: 0 76<65 412 499 573> 524 76<65 204> 660 71<177 377>
VStem: 412 87<76 371 371 378>
Fore
177 731 m 1
 377 731 l 1
 377 660 l 1
 177 660 l 1
 177 731 l 1
204 524 m 2xd0
 65 524 l 1
 65 600 l 1
 210 600 l 2
 370 600 499 501 499 378 c 2
 499 76 l 1
 573 76 l 1
 573 0 l 1
 65 0 l 1
 65 76 l 1
 412 76 l 1
 412 371 l 2
 412 455 319 524 204 524 c 2xd0
EndSplineSet
Ligature: 1 1 'ccmp' afii57665 afii57841
EndChar
StartChar: uniFB4D
Encoding: 407 64333 249
Width: 560
Flags: MW
HStem: 0 76<62 226 226 232> 524 76<62 226> 660 71<150 380>
VStem: 434 87<229 371 371 378>
Fore
150 731 m 1
 380 731 l 1
 380 660 l 1
 150 660 l 1
 150 731 l 1
434 229 m 2
 434 371 l 2
 434 455 341 524 226 524 c 2
 62 524 l 1
 62 600 l 1
 232 600 l 2
 392 600 521 501 521 378 c 2
 521 222 l 2
 521 99 392 0 232 0 c 2
 62 0 l 1
 62 76 l 1
 226 76 l 2
 341 76 434 145 434 229 c 2
EndSplineSet
Ligature: 1 1 'ccmp' afii57675 afii57841
EndChar
StartChar: uniFB4E
Encoding: 408 64334 250
Width: 578
Flags: W
HStem: 0 76<68 243 243 249> 243 76<263 297> 524 76<155 243 155 155> 660 71<185 385>
VStem: 68 87<390 397 397 524> 451 87<229 371 371 378>
Fore
185 731 m 1
 385 731 l 1
 385 660 l 1
 185 660 l 1
 185 731 l 1
451 229 m 2xec
 451 371 l 2
 451 455 358 524 243 524 c 2
 155 524 l 1
 155 397 l 2
 155 354 203 319 263 319 c 2
 297 319 l 1
 297 243 l 1
 257 243 l 2
 153 243 68 309 68 390 c 2
 68 600 l 1
 249 600 l 2
 409 600 538 501 538 378 c 2
 538 222 l 2
 538 99 409 0 249 0 c 2
 68 0 l 1
 68 76 l 1
 243 76 l 2
 358 76 451 145 451 229 c 2xec
EndSplineSet
Ligature: 1 1 'ccmp' afii57684 afii57841
EndChar
StartChar: uniFB4F
Encoding: 409 64335 251
Width: 650
Flags: MW
HStem: 0 21<485 587 485 485> 580 20 729 20<77 164 164 164>
VStem: 77 87<600 749> 492 87<450 600>
Fore
393 276 m 1
 454 320 492 381 492 450 c 2
 492 600 l 1
 579 600 l 1
 579 450 l 2
 579 350 523 263 439 210 c 1
 587 0 l 1
 485 0 l 1
 77 580 l 1
 77 749 l 1
 164 749 l 1
 164 600 l 1
 393 276 l 1
EndSplineSet
Ligature: 1 1 'hlig' afii57664 afii57676
EndChar
